<svg width="123" height="24" viewBox="0 0 123 24" fill="none" xmlns="http://www.w3.org/2000/svg">
<path d="M9.966 1.3C11.888 1.3 13.5517 1.62033 14.957 2.261C16.383 2.90167 17.4783 3.811 18.243 4.989C19.0077 6.167 19.39 7.562 19.39 9.174C19.39 10.7653 19.0077 12.1603 18.243 13.359C17.4783 14.537 16.383 15.4463 14.957 16.087C13.5517 16.707 11.888 17.017 9.966 17.017H5.595V23H0.573V1.3H9.966ZM9.687 12.925C11.1957 12.925 12.3427 12.6047 13.128 11.964C13.9133 11.3027 14.306 10.3727 14.306 9.174C14.306 7.95467 13.9133 7.02467 13.128 6.384C12.3427 5.72267 11.1957 5.392 9.687 5.392H5.595V12.925H9.687ZM22.4218 1.3H27.4438V18.908H38.3248V23H22.4218V1.3ZM49.9457 23.372C46.8457 23.372 44.4277 22.5143 42.6917 20.799C40.9764 19.0837 40.1187 16.6347 40.1187 13.452V1.3H45.1407V13.266C45.1407 17.1513 46.7527 19.094 49.9767 19.094C51.5474 19.094 52.7461 18.629 53.5727 17.699C54.3994 16.7483 54.8127 15.2707 54.8127 13.266V1.3H59.7727V13.452C59.7727 16.6347 58.9047 19.0837 57.1687 20.799C55.4534 22.5143 53.0457 23.372 49.9457 23.372ZM68.3135 5.392H61.3695V1.3H80.2795V5.392H73.3355V23H68.3135V5.392ZM91.7058 23.372C88.6058 23.372 86.1878 22.5143 84.4518 20.799C82.7364 19.0837 81.8788 16.6347 81.8788 13.452V1.3H86.9008V13.266C86.9008 17.1513 88.5128 19.094 91.7368 19.094C93.3074 19.094 94.5061 18.629 95.3328 17.699C96.1594 16.7483 96.5728 15.2707 96.5728 13.266V1.3H101.533V13.452C101.533 16.6347 100.665 19.0837 98.9288 20.799C97.2134 22.5143 94.8058 23.372 91.7058 23.372ZM113.072 23.372C111.357 23.372 109.693 23.1447 108.081 22.69C106.49 22.2147 105.208 21.605 104.237 20.861L105.942 17.079C106.872 17.761 107.978 18.3087 109.259 18.722C110.54 19.1353 111.822 19.342 113.103 19.342C114.529 19.342 115.583 19.1353 116.265 18.722C116.947 18.288 117.288 17.7197 117.288 17.017C117.288 16.5003 117.081 16.0767 116.668 15.746C116.275 15.3947 115.759 15.1157 115.118 14.909C114.498 14.7023 113.651 14.475 112.576 14.227C110.923 13.8343 109.569 13.4417 108.515 13.049C107.461 12.6563 106.552 12.026 105.787 11.158C105.043 10.29 104.671 9.13267 104.671 7.686C104.671 6.42533 105.012 5.28867 105.694 4.276C106.376 3.24267 107.399 2.42633 108.763 1.827C110.148 1.22767 111.832 0.928 113.816 0.928C115.201 0.928 116.554 1.09333 117.877 1.424C119.2 1.75467 120.357 2.23 121.349 2.85L119.799 6.663C117.794 5.52633 115.79 4.958 113.785 4.958C112.38 4.958 111.336 5.18533 110.654 5.64C109.993 6.09467 109.662 6.694 109.662 7.438C109.662 8.182 110.044 8.74 110.809 9.112C111.594 9.46333 112.783 9.81467 114.374 10.166C116.027 10.5587 117.381 10.9513 118.435 11.344C119.489 11.7367 120.388 12.3567 121.132 13.204C121.897 14.0513 122.279 15.1983 122.279 16.645C122.279 17.885 121.928 19.0217 121.225 20.055C120.543 21.0677 119.51 21.8737 118.125 22.473C116.74 23.0723 115.056 23.372 113.072 23.372Z" fill="#7367F0"/>
</svg>
