<svg width="324" height="278" viewBox="0 0 324 278" fill="none" xmlns="http://www.w3.org/2000/svg">
<g id="Illustration">
<g id="Chair4">
<path id="Path" fill-rule="evenodd" clip-rule="evenodd" d="M220.462 176.116L207.722 276.832L214.402 276.743L227.142 177.059L220.462 176.116Z" fill="#C5C5C5"/>
<path id="Path_2" fill-rule="evenodd" clip-rule="evenodd" d="M225.877 176.116L238.617 276.832L231.937 276.743L219.197 177.059L225.877 176.116Z" fill="#C3C3C3"/>
<path id="Path_3" fill-rule="evenodd" clip-rule="evenodd" d="M264.716 176.116L277.456 276.832L270.777 276.743L258.037 177.059L264.716 176.116Z" fill="#C3C3C3"/>
<path id="Path_4" fill-rule="evenodd" clip-rule="evenodd" d="M178.522 191.947C172.711 191.947 168 187.236 168 181.425V181.425C168 175.614 172.711 170.903 178.522 170.903H221.703C227.425 170.903 232.207 166.549 232.742 160.853L239.68 87.0503C240.215 81.3537 244.997 77 250.719 77H279.608C286.066 77 291.157 82.4976 290.663 88.937L283.539 181.708C283.095 187.486 278.278 191.947 272.483 191.947H178.522Z" fill="#C5C5C5"/>
<path id="Combined Shape" fill-rule="evenodd" clip-rule="evenodd" d="M168.002 181.335C168.062 181.336 168.122 181.337 168.182 181.337H261.893C267.687 181.337 272.503 176.877 272.948 171.1L280.068 78.6504C280.11 78.1007 280.112 77.558 280.075 77.0249C279.827 77.0084 279.577 77 279.325 77H250.561C244.84 77 240.059 81.352 239.522 87.0473L232.589 160.589C232.052 166.284 227.271 170.636 221.55 170.636H178.495C172.699 170.636 168 175.335 168 181.131C168 181.199 168.001 181.267 168.002 181.335Z" fill="#B2B0B0"/>
</g>
<g id="Wom3.4">
<g id="LLeg">
<path id="Path_5" fill-rule="evenodd" clip-rule="evenodd" d="M176.486 243.749C176.486 243.749 182.019 257.016 177.483 260.533C172.941 264.05 164.107 272.748 164.107 272.748L192.73 266.54L185.664 242.2L176.486 243.749Z" fill="url(#paint0_linear)"/>
<path id="Path_6" fill-rule="evenodd" clip-rule="evenodd" d="M178.13 252.485C178.13 252.485 178.833 258.711 176.803 260.835C174.773 262.959 163.783 271.046 162.922 272.58C162.062 274.115 163.601 275.809 163.601 275.809C163.601 275.809 175.471 276.84 180.81 273.596C184.665 271.253 190.412 267.045 190.412 267.045L191.935 271.183L196.25 271.007C196.25 271.007 196.822 265.909 195.798 263.465C194.774 261.02 189.5 248.579 189.5 248.579C189.5 248.579 187.47 250.402 185.313 251.32C183.155 252.238 180.453 254.753 180.453 254.753L178.13 252.485Z" fill="#323740"/>
<path id="Path_7" fill-rule="evenodd" clip-rule="evenodd" d="M224.37 145.389C214.747 145.818 161.186 157.649 151.455 159.659C141.724 161.669 133.497 172.546 140.917 185.14C149.252 199.278 170.756 239.429 175.977 248.48C178.561 252.96 191.598 250.448 188.535 242.929C182.827 228.912 180.176 193.7 165.621 180.861C165.621 180.861 214.567 189.368 235.71 179.623C251.076 172.539 247.6 144.351 224.37 145.389Z" fill="#42474F"/>
</g>
<g id="LArm">
<path id="Path_8" fill-rule="evenodd" clip-rule="evenodd" d="M157.239 83.2888C157.239 83.2888 157.348 75.4687 154.609 71.3819C151.87 67.295 151.761 62.9539 149.689 63.096C147.616 63.2381 149.668 73.3284 149.668 73.3284C149.668 73.3284 147.038 72.3249 145.149 71.0555C143.259 69.7861 137.53 63.5284 136.191 64.6373C133.921 66.5267 137.577 77.1848 139.569 79.3155C141.567 81.447 152.482 88.456 152.482 88.456L179.217 115.759L184.237 101.889L157.239 83.2888Z" fill="#FFE0D1"/>
<path id="Path_9" fill-rule="evenodd" clip-rule="evenodd" d="M216.378 80.7095C211.901 91.079 203.704 110.128 200.325 115.811C196.091 122.929 189.413 126.065 181.595 120.784C179.519 119.382 173.196 114.026 173.196 114.026L180.848 97.207C180.848 97.207 185.811 101.298 185.811 101.298C185.811 101.298 194.212 79.7899 200.97 67.3305C206.823 56.551 223.192 64.9452 216.378 80.7095Z" fill="#FFB66F"/>
<path id="Path_10" fill-rule="evenodd" clip-rule="evenodd" d="M185.724 101.309C185.724 101.309 183.468 108.953 182.94 108.51C182.413 108.068 183.343 99.3116 183.343 99.3116L185.724 101.309Z" fill="black" fill-opacity="0.159856"/>
<path id="Path 65" fill-rule="evenodd" clip-rule="evenodd" d="M182.749 98.1379L176.35 119.541L169.554 114.213L179.013 95.2393L182.749 98.1379Z" fill="#FFEDC2"/>
</g>
<g id="Head">
<g id="Group 21">
<path id="Path_11" fill-rule="evenodd" clip-rule="evenodd" d="M224.492 8.35544C224.492 8.35544 227.854 2.81133 233.185 3.22772C238.516 3.64411 244.985 11.7677 244.647 20.7683C244.319 29.7676 246.303 31.1834 250.128 36.3885C260.405 50.3923 244.523 66.7859 244.523 66.7859L223.416 66.7914L222.612 27.5335L224.492 8.35544Z" fill="#42474F"/>
<path id="Path 50" fill-rule="evenodd" clip-rule="evenodd" d="M232.864 11.5997C247.247 21.4176 239.004 32.811 237.564 35.4861C234.797 54.9513 240.502 55.951 249.111 60.3007L246.116 65.6522L233.779 63.3298L223.372 12.5824L232.864 11.5997Z" fill="black" fill-opacity="0.199355"/>
</g>
<path id="Path_12" fill-rule="evenodd" clip-rule="evenodd" d="M239.65 58.982C239.65 58.982 232.319 57.5105 232.102 47.24C231.884 36.9695 233.091 33.4637 233.091 33.4637L219.267 33.2146C219.267 33.2146 219.117 44.6609 219.114 48.801C219.109 58.8676 211.35 60.0353 211.35 60.0353C211.35 60.0353 212.963 67.9984 225.49 68.7019C235.27 69.252 239.65 58.982 239.65 58.982Z" fill="#F9C7B0"/>
<g id="Group 20">
<path id="Path_13" fill-rule="evenodd" clip-rule="evenodd" d="M232.579 11.2648C233.082 5.34089 223.306 3.90032 221.496 8.47581C221.496 8.47581 220.998 12.5534 224.18 14.1446C228.483 16.2882 232.579 11.2648 232.579 11.2648Z" fill="#FB9934"/>
<path id="Path_14" fill-rule="evenodd" clip-rule="evenodd" d="M233.884 26.5234C239.867 25.0081 240.757 34.0367 234.488 35.3566C234.488 35.3566 233.512 48.6588 220.876 51.3447C210.613 53.526 206.842 39.0657 206.13 36.1725C205.369 33.0879 203.188 22.8867 203.188 22.8867L232.049 16.738L233.884 26.5234Z" fill="#FFE0D1"/>
<path id="Path_15" fill-rule="evenodd" clip-rule="evenodd" d="M231.875 32.6348C230.788 32.5727 229.3 26.9368 229.3 26.9368C226.097 26.9807 225.409 26.4026 222.277 23.0908C212.43 27.4791 205.569 29.6383 206.267 37.3741C206.267 37.3741 194.819 21.603 207.075 12.5274C217.857 4.55241 231.539 6.98393 235.755 16.013C238.737 22.3852 237.998 27.6875 237.998 27.6875C237.998 27.6875 235.906 25.5326 233.471 26.6994C231.036 27.8663 232.962 32.6969 231.875 32.6348Z" fill="#42474F"/>
<path id="Path_16" d="M221.523 42.4103C221.523 42.4103 219.054 45.5953 215.062 43.9529" stroke="#F77B7B" stroke-width="1.5" stroke-linecap="round"/>
<path id="Path_17" d="M220.163 45.7801C219.318 46.4106 218.423 46.6337 217.527 46.3745" stroke="#F49494" stroke-linecap="round"/>
<path id="Path 8" d="M234.277 31.3971C233.915 29.9956 234.108 28.7802 235.505 28.2473" stroke="#F77B7B" stroke-linecap="round"/>
</g>
</g>
<g id="Group 19">
<path id="Path_18" fill-rule="evenodd" clip-rule="evenodd" d="M214.241 58.6631C214.072 58.655 208.16 61.2456 207.48 62.2443C203.045 68.7506 194.902 91.6507 194.483 96.6185C194.011 102.349 202.271 111.477 202.372 119.773C202.462 128.07 198.839 153.05 200.245 155.383C201.639 157.717 210.804 168.801 212.716 168.847C214.638 168.892 216.074 163.072 218.986 163.199C221.887 163.325 227.937 171.041 230.546 170.986C233.144 170.929 260.065 153.875 258.007 149.016C255.938 144.157 246.334 132.081 247.313 125.46C248.28 118.841 256.005 94.4037 258.794 86.0867C261.571 77.7697 263.809 71.1443 258.625 67.5655C253.441 63.9867 236.574 57.4404 236.574 57.4404L221.471 65.8885C221.471 65.8885 215.118 58.7054 214.241 58.6631Z" fill="#FF9F43"/>
<path id="Path_19" fill-rule="evenodd" clip-rule="evenodd" d="M219.61 65.6537C215.081 80.7166 208.865 95.5588 206.375 109.683L213.617 105.781L220.296 110.843C219.825 96.1582 222.29 80.7395 223.423 65.6537H219.61Z" fill="#FFF6E1"/>
<path id="Path_20" fill-rule="evenodd" clip-rule="evenodd" d="M246.067 77.2197L246.239 78.4377C248.268 93.5642 245.867 111.92 241.705 114.72C237.457 117.579 220.923 114.773 220.923 117.037C220.923 119.301 243.772 140.048 240.021 149.967C237.959 155.42 238.649 160.27 242.093 164.516L243.093 163.844C250.897 158.55 259.183 151.792 258.007 149.016C255.938 144.157 246.334 132.081 247.313 125.46C248.241 119.105 255.398 96.3301 258.436 87.1599L259.404 84.2525C260.529 80.8435 261.465 77.7554 261.692 75.091L260.993 74.6382C249.833 67.4842 244.858 68.3448 246.067 77.2197V77.2197Z" fill="black" fill-opacity="0.159856"/>
<path id="Path_21" fill-rule="evenodd" clip-rule="evenodd" d="M239.361 58.5071L236.574 57.4404L221.14 65.4513C221.14 65.4513 224.042 72.8362 229.181 69.1588C233.586 66.0141 231.728 63.2469 235.18 61.8194C238.622 60.3919 239.361 58.5071 239.361 58.5071Z" fill="#FFF6E1"/>
<path id="Path_22" fill-rule="evenodd" clip-rule="evenodd" d="M221.14 65.4513C220.021 67.9363 217.747 69.3883 216.571 68.9369C214.63 68.1913 215.463 65.2208 214.698 63.7201C214.15 62.6555 213.797 62.4948 213.317 61.4952C212.872 60.5782 212.853 59.4777 212.968 59.174L214.486 58.484C214.486 58.484 216.572 60.4517 217.543 61.4952C218.753 62.7956 221.14 65.4513 221.14 65.4513Z" fill="#FFF6E1"/>
</g>
<g id="RArm">
<path id="Path_23" fill-rule="evenodd" clip-rule="evenodd" d="M238.131 105.348C238.131 105.348 229.045 97.3165 226.263 96.3845C223.482 95.4524 207.191 94.3327 207.294 96.4389C207.411 98.6953 216.161 98.5654 217.067 99.6756C217.974 100.785 218.18 108.372 221.607 109.224C225.027 110.076 235.281 111.544 235.281 111.544L259.809 126.318L260.857 112.819L238.131 105.348Z" fill="#FFE0D1"/>
<path id="Path_24" fill-rule="evenodd" clip-rule="evenodd" d="M262.305 71.3415C271.878 84.835 280.051 105.389 283.188 113.402C286.326 121.416 283.161 133.502 269.366 131.13C267.036 130.729 261.811 129.122 261.811 129.122L258.514 110.563L262.766 112.346C262.766 112.346 249.055 88.0736 245.707 81.5667C240.114 70.7 253.873 59.4524 262.305 71.3415Z" fill="#FFB66F"/>
<path id="Path_25" fill-rule="evenodd" clip-rule="evenodd" d="M262.766 112.346C262.766 112.346 269.731 115.743 268.855 114.249C267.979 112.755 260.139 107.626 260.139 107.626L262.766 112.346Z" fill="black" fill-opacity="0.159856"/>
<path id="Path 64" fill-rule="evenodd" clip-rule="evenodd" d="M262.102 111.488L264.38 131.557L255.373 128.698L256.732 109.031L262.102 111.488Z" fill="#FFEDC2"/>
</g>
<g id="RLeg">
<path id="Path_26" fill-rule="evenodd" clip-rule="evenodd" d="M143.061 244.197C143.061 244.197 143.227 257.333 132.39 262.244C121.56 267.154 113.843 266.858 114.825 270.655C115.808 274.451 143.998 274.298 146.631 271.329C148.875 268.803 153.754 245.284 155.098 247.082L143.061 244.197Z" fill="url(#paint1_linear)"/>
<path id="Path_27" fill-rule="evenodd" clip-rule="evenodd" d="M153.169 254.551C153.169 254.551 150.892 260.129 150.691 263.51C150.49 266.892 145.305 276.504 145.305 276.504L141.209 277.018L140.835 273.533C140.835 273.533 134.906 276.056 131.187 276.459C127.468 276.862 114.712 275.348 112.176 273.242C109.639 271.137 110.92 268.173 118.243 266.367C125.564 264.56 136.939 259.283 139.104 255.462C141.268 251.64 141.282 251.739 141.282 251.739L141.238 258.107C141.238 258.107 143.112 254.755 145.324 254.308C147.535 253.861 153.169 254.551 153.169 254.551Z" fill="#323740"/>
<path id="Path_28" fill-rule="evenodd" clip-rule="evenodd" d="M253.468 141.328C253.468 141.328 271.677 168.73 249.907 180.969C231.315 191.422 173.971 179.179 173.971 179.179C173.971 179.179 174.988 187.357 173.971 194.652C171.315 213.703 158.681 245.443 156.008 249.431C152.311 254.946 141.051 250.787 140.839 246.195C140.626 241.602 149.327 182.951 150.65 171.766C151.967 160.581 156.122 158.957 168.26 155.899C171.049 155.197 204.024 147.012 207.045 147.251C233.001 149.3 253.468 141.328 253.468 141.328Z" fill="#42474F"/>
<path id="Path_29" opacity="0.439941" fill-rule="evenodd" clip-rule="evenodd" d="M240.241 177.924C221.416 180.03 171.579 175.688 169.578 177.661C167.667 179.545 167.986 212.321 163.698 231.29C167.921 219.796 172.492 205.258 173.971 194.652C174.989 187.357 173.971 179.179 173.971 179.179L175.919 179.567C186.079 181.538 233.182 190 249.907 180.969C259.717 175.672 263.512 167.471 261.293 156.365C258.618 169.466 251.6 176.653 240.241 177.924Z" fill="white" fill-opacity="0.192499"/>
<ellipse id="Oval" rx="3.16374" ry="5.79352" transform="matrix(-0.97437 0.224951 0.224951 0.97437 142.623 173.268)" fill="white" fill-opacity="0.192499"/>
<ellipse id="Oval_2" rx="4.21818" ry="6.32041" transform="matrix(-0.961262 -0.275637 -0.275637 0.961262 157.388 169.581)" fill="white" fill-opacity="0.192499"/>
</g>
</g>
<g id="Example Task1">
<g id="Group 3">
<path id="Rectangle" d="M108.868 66.8919C108.036 65.35 109.034 63.4574 110.776 63.2724L140.773 60.0859C141.749 59.9822 142.694 60.4679 143.178 61.3222L162.486 95.4274C163.327 96.9125 162.44 98.782 160.758 99.07L130.88 104.185C129.837 104.364 128.797 103.857 128.295 102.926L108.868 66.8919Z" fill="#7596FF"/>
<path id="Rectangle_2" fill-rule="evenodd" clip-rule="evenodd" d="M110.192 66.7652C109.397 65.2701 110.312 63.437 111.985 63.1743L141.238 58.58C142.276 58.417 143.303 58.9299 143.796 59.8574L162.357 94.765C163.152 96.2602 162.237 98.0932 160.564 98.3559L131.311 102.95C130.273 103.113 129.246 102.6 128.753 101.673L110.192 66.7652Z" fill="url(#paint2_linear)"/>
<path id="Rectangle_3" d="M111.372 65.4943L142.203 60.2701L161.186 95.9733L130.503 100.614L111.372 65.4943Z" fill="white"/>
<path id="Rectangle_4" d="M119.138 60.9284C118.848 60.4356 119.154 59.8064 119.721 59.7298L131.845 58.0909C132.484 58.0046 133.112 58.3097 133.438 58.8649L135.648 62.6188C135.938 63.1116 135.632 63.7408 135.065 63.8174L122.941 65.4563C122.303 65.5426 121.675 65.2375 121.348 64.6823L119.138 60.9284Z" fill="#7367F0"/>
<path id="Path_30" fill-rule="evenodd" clip-rule="evenodd" d="M135.438 70.6871C135.849 70.4688 136.359 70.6249 136.577 71.0357C136.78 71.4172 136.66 71.8841 136.313 72.1236L136.229 72.1747L122.508 74.4731C122.098 74.6913 121.588 74.5352 121.369 74.1244C121.167 73.743 121.286 73.276 121.633 73.0366L121.717 72.9855L135.438 70.6871Z" fill="#A7C3FF"/>
<path id="Path_31" fill-rule="evenodd" clip-rule="evenodd" d="M139.393 78.1252C139.804 77.907 140.313 78.0631 140.532 78.4739C140.735 78.8554 140.615 79.3223 140.268 79.5618L140.184 79.6129L126.463 81.9113C126.053 82.1295 125.543 81.9734 125.324 81.5626C125.122 81.1811 125.241 80.7142 125.588 80.4747L125.672 80.4236L139.393 78.1252Z" fill="#A7C3FF"/>
<path id="Path_32" fill-rule="evenodd" clip-rule="evenodd" d="M143.348 85.5634C143.759 85.3452 144.268 85.5013 144.487 85.9121C144.69 86.2935 144.57 86.7605 144.223 87L144.139 87.0511L130.418 89.3494C130.008 89.5677 129.498 89.4116 129.279 89.0008C129.076 88.6193 129.196 88.1524 129.543 87.9129L129.627 87.8618L143.348 85.5634Z" fill="#A7C3FF"/>
</g>
</g>
<g id="Group 26">
<g id="Group 25">
<path id="Rectangle_5" fill-rule="evenodd" clip-rule="evenodd" d="M108.628 142.303H129.867V277.293H108.628V142.303Z" fill="#C5C5C5"/>
<path id="Rectangle_6" fill-rule="evenodd" clip-rule="evenodd" d="M108.628 137H121.371V277.293H108.628V137Z" fill="#DBDBDB"/>
<path id="Rectangle_7" fill-rule="evenodd" clip-rule="evenodd" d="M12 142.303H117.132V182.791H33.2388V277.293H12V142.303Z" fill="#C5C5C5"/>
<path id="Rectangle_8" fill-rule="evenodd" clip-rule="evenodd" d="M12 142.303H24.7433V277.293H12V142.303Z" fill="#DBDBDB"/>
</g>
<g id="Group 25_2">
<path id="Rectangle_9" fill-rule="evenodd" clip-rule="evenodd" d="M274.911 142.303H296.15V277.293H274.911V142.303Z" fill="#C5C5C5"/>
<path id="Rectangle_10" fill-rule="evenodd" clip-rule="evenodd" d="M178.283 142.303H283.415V192.421H199.522V277.293H178.283V142.303Z" fill="#C5C5C5"/>
<path id="Rectangle_11" fill-rule="evenodd" clip-rule="evenodd" d="M28.9826 137L190.903 137V192.323H28.9826V137Z" fill="#DBDBDB"/>
<path id="Rectangle_12" fill-rule="evenodd" clip-rule="evenodd" d="M175.097 142.303H187.841V192.323H175.097V142.303Z" fill="#C3C3C3"/>
<path id="Rectangle_13" fill-rule="evenodd" clip-rule="evenodd" d="M178.283 142.303H191.026V277.293H178.283V142.303Z" fill="#DBDBDB"/>
<path id="Rectangle_14" fill-rule="evenodd" clip-rule="evenodd" d="M182.582 144.955C182.582 140.562 186.143 137 190.536 137L299.885 137C304.278 137 307.84 140.562 307.84 144.955V144.955C307.84 149.348 304.278 152.91 299.885 152.91H190.536C186.143 152.91 182.582 149.348 182.582 144.955V144.955Z" fill="#C5C5C5"/>
<path id="Rectangle_15" fill-rule="evenodd" clip-rule="evenodd" d="M16.3627 140.182H178.283V156.092H16.3627V140.182Z" fill="#C3C3C3"/>
<path id="Rectangle_16" fill-rule="evenodd" clip-rule="evenodd" d="M0.645874 144.955C0.645874 140.562 4.20742 137 8.6008 137H193.691C198.084 137 201.646 140.562 201.646 144.955V144.955C201.646 149.348 198.084 152.91 193.691 152.91H8.6008C4.20742 152.91 0.645874 149.348 0.645874 144.955V144.955Z" fill="#DBDBDB"/>
</g>
</g>
<g id="Cup">
<path id="Path_33" fill-rule="evenodd" clip-rule="evenodd" d="M216.726 122.908H222.115C223.156 122.908 224 123.691 224 124.658V127.055C224 129.345 222 131.202 219.534 131.202H216.726C216.28 131.202 215.918 130.866 215.918 130.452C215.918 130.038 216.28 129.702 216.726 129.702H219.534C221.108 129.702 222.385 128.517 222.385 127.055V124.658C222.385 124.52 222.264 124.408 222.115 124.408H216.726C216.28 124.408 215.918 124.072 215.918 123.658C215.918 123.244 216.28 122.908 216.726 122.908Z" fill="#8C81FF"/>
<path id="Path_34" fill-rule="evenodd" clip-rule="evenodd" d="M198.83 121C197.64 121 196.676 121.895 196.676 123V128C196.676 131.6 199.602 134.565 203.367 134.956L203.368 136H212.796L212.796 134.933C216.466 134.462 219.291 131.537 219.291 128V123C219.291 121.895 218.327 121 217.137 121H198.83Z" fill="#7367F0"/>
<path id="Rectangle_17" fill-rule="evenodd" clip-rule="evenodd" d="M219.692 135.515C219.692 135.231 219.462 135 219.177 135H197.592C197.308 135 197.077 135.231 197.077 135.515V135.515C197.077 135.788 197.289 136.013 197.561 136.03L205.526 136.522H211.18L219.208 136.03C219.48 136.013 219.692 135.788 219.692 135.515V135.515Z" fill="#8C81FF"/>
</g>
<g id="FacingBack Laptop3">
<path id="Rectangle_18" fill-rule="evenodd" clip-rule="evenodd" d="M75.524 135.108C75.524 134.309 76.1714 133.662 76.97 133.662H179.5C180.299 133.662 180.946 134.309 180.946 135.108V135.108C180.946 135.906 180.299 136.554 179.5 136.554H76.97C76.1714 136.554 75.524 135.906 75.524 135.108V135.108Z" fill="#8C81FF"/>
<path id="Rectangle_19" fill-rule="evenodd" clip-rule="evenodd" d="M144.97 135.108C144.97 134.309 145.617 133.662 146.416 133.662H179.5C180.299 133.662 180.946 134.309 180.946 135.108V135.108C180.946 135.906 180.299 136.554 179.5 136.554H146.416C145.617 136.554 144.97 135.906 144.97 135.108V135.108Z" fill="#7367F0"/>
<path id="Rectangle_20" fill-rule="evenodd" clip-rule="evenodd" d="M70.5273 94.0633C70.2477 91.9092 71.9252 90 74.0973 90L138.429 90C140.238 90 141.766 91.3426 141.999 93.1367L146.747 129.723C147.026 131.877 145.349 133.786 143.177 133.786H78.8449C77.0358 133.786 75.5077 132.444 75.2749 130.65L70.5273 94.0633Z" fill="#7367F0"/>
<path id="Rectangle_21" fill-rule="evenodd" clip-rule="evenodd" d="M70.5273 94.0633C70.2477 91.9092 71.9252 90 74.0973 90L136.156 90C137.965 90 139.493 91.3426 139.726 93.1367L144.474 129.723C144.753 131.877 143.076 133.786 140.904 133.786H78.8449C77.0358 133.786 75.5077 132.444 75.2749 130.65L70.5273 94.0633Z" fill="url(#paint3_linear)"/>
<ellipse id="Oval_3" cx="106.333" cy="112.59" rx="4.50161" ry="4.89449" transform="rotate(-37 106.333 112.59)" fill="white"/>
</g>
<g id="Group 79">
<g id="Group 86">
<path id="Path 113" fill-rule="evenodd" clip-rule="evenodd" d="M290.972 227.156C299.725 207.306 307.678 186.92 314.958 166.084C298.189 181.927 285.148 201.229 287.005 227.156H290.972Z" fill="#57E295"/>
<path id="Rectangle_22" fill-rule="evenodd" clip-rule="evenodd" d="M286.306 229.229C284.234 195.383 285.112 163.949 302.477 146C300.082 183.161 295.601 209.34 289.926 229.229H286.306Z" fill="#28C76F"/>
<path id="Path 112" fill-rule="evenodd" clip-rule="evenodd" d="M285.509 225.704C275.807 202.052 266.058 195.273 258 170.995C284.373 184.702 286.027 196.021 291.203 225.704H285.509Z" fill="#57E295"/>
<path id="Path 114" fill-rule="evenodd" clip-rule="evenodd" d="M280.288 225.704L262.883 202.052C271.289 204.454 285.339 208.343 285.339 225.704H280.288Z" fill="#28C76F"/>
<path id="Path 116" fill-rule="evenodd" clip-rule="evenodd" d="M296.566 225.704H302.372C306.062 217.982 311.261 212.666 323.84 219.11C315.595 206.521 298.677 202.711 296.566 225.704Z" fill="#57E295"/>
<path id="Path 117" fill-rule="evenodd" clip-rule="evenodd" d="M291.225 225.704H296.053C304.915 213.002 308.724 207.468 317.895 196.62C305.814 201.215 293.414 207.468 291.225 225.704Z" fill="#28C76F"/>
</g>
<g id="Group 85">
<path id="Rectangle_23" fill-rule="evenodd" clip-rule="evenodd" d="M279.088 223.871H303.478C304.407 223.871 305.16 224.622 305.16 225.548V230.161C311.328 237.918 314.412 245.675 314.412 253.433C314.412 260.951 311.778 268.47 306.511 275.988C306.197 276.437 305.682 276.705 305.132 276.705H277.433C276.884 276.705 276.369 276.437 276.054 275.988C270.787 268.47 268.154 260.951 268.154 253.433C268.154 245.822 271.122 238.211 277.06 230.6L277.405 230.161V225.548C277.405 224.622 278.159 223.871 279.088 223.871Z" fill="#7367F0"/>
<mask id="mask0" mask-type="alpha" maskUnits="userSpaceOnUse" x="268" y="223" width="47" height="54">
<path id="Rectangle_24" fill-rule="evenodd" clip-rule="evenodd" d="M279.088 223.871H303.478C304.407 223.871 305.16 224.622 305.16 225.548V230.161C311.328 237.918 314.412 245.675 314.412 253.433C314.412 260.951 311.778 268.47 306.511 275.988C306.197 276.437 305.682 276.705 305.132 276.705H277.433C276.884 276.705 276.369 276.437 276.054 275.988C270.787 268.47 268.154 260.951 268.154 253.433C268.154 245.822 271.122 238.211 277.06 230.6L277.405 230.161V225.548C277.405 224.622 278.159 223.871 279.088 223.871Z" fill="white"/>
</mask>
<g mask="url(#mask0)">
<path id="Rectangle_25" fill-rule="evenodd" clip-rule="evenodd" d="M262.266 222.418H284.134C273.665 246.718 294.316 261.108 284.134 285.316H262.266V222.418Z" fill="#857AF9"/>
</g>
</g>
</g>
</g>
<defs>
<linearGradient id="paint0_linear" x1="197.683" y1="234.764" x2="195.179" y2="271.167" gradientUnits="userSpaceOnUse">
<stop stop-color="#FDC6C6"/>
<stop offset="1" stop-color="#FAB2B2"/>
</linearGradient>
<linearGradient id="paint1_linear" x1="162.081" y1="237.056" x2="160.439" y2="272.103" gradientUnits="userSpaceOnUse">
<stop stop-color="#FDC6C6"/>
<stop offset="1" stop-color="#FAB2B2"/>
</linearGradient>
<linearGradient id="paint2_linear" x1="92.2823" y1="38.6092" x2="132.629" y2="114.49" gradientUnits="userSpaceOnUse">
<stop stop-color="#7367F0"/>
<stop offset="1" stop-color="#8CA5FF"/>
</linearGradient>
<linearGradient id="paint3_linear" x1="64.0869" y1="66.7463" x2="64.0869" y2="133.786" gradientUnits="userSpaceOnUse">
<stop stop-color="#7367F0"/>
<stop offset="1" stop-color="#8CA5FF"/>
</linearGradient>
</defs>
</svg>
