<svg width="28" height="24" viewBox="0 0 28 24" fill="none" xmlns="http://www.w3.org/2000/svg">
<path d="M25.5511 5.62799L23.6724 10.6292H19.536L17.6156 5.62799H25.5511Z" fill="#00AF7E"/>
<path d="M8.07769 18.1309L6.19815 23.1338H1.21082L3.13228 18.1309H8.07769Z" fill="white"/>
<path d="M10.896 10.6292L9.95658 13.1297H5.0531L6.01341 10.6292H10.896Z" fill="white"/>
<path d="M24.3357 23.1338L19.3507 23.1314L14.6534 10.6291L12.7747 5.62797H7.93384L10.0945 0H15.4539L17.6157 5.62797L19.5361 10.6291L24.3357 23.1338Z" fill="white"/>
<path d="M12.7747 5.62799L10.896 10.6292H1.87868L0 5.62799H12.7747Z" fill="#00AF7E"/>
<path d="M17.4713 18.1309H1.87868L0 13.1297H15.5926L17.4713 18.1309Z" fill="#00AF7E"/>
<path d="M25.5511 13.1297L23.6725 18.1309H22.4167L20.4963 13.1297H25.5511Z" fill="#00AF7E"/>
<path fill-rule="evenodd" clip-rule="evenodd" d="M26.773 23.1776C26.4265 23.1776 26.137 23.0599 25.8987 22.8247C25.6645 22.5863 25.5458 22.2971 25.5458 21.9536C25.5458 21.6101 25.6635 21.321 25.8987 21.0859C26.137 20.8473 26.4265 20.7298 26.773 20.7298C27.1195 20.7298 27.4087 20.8473 27.6439 21.0859C27.8823 21.32 28 21.6103 28 21.9536C28 22.2969 27.8823 22.5863 27.6439 22.8247C27.4087 23.0599 27.1195 23.1776 26.773 23.1776ZM27.5104 22.7006C27.7107 22.4974 27.8084 22.2492 27.8084 21.9536C27.8084 21.658 27.7099 21.41 27.5104 21.2087C27.311 21.0073 27.0654 20.9035 26.773 20.9035C26.4805 20.9035 26.2356 21.0052 26.0353 21.2087C25.835 21.4121 25.7373 21.6569 25.7373 21.9536C25.7373 22.2503 25.8359 22.4974 26.0353 22.7006C26.2292 22.8984 26.496 23.0077 26.773 23.0027C27.0654 23.0027 27.3102 22.9009 27.5104 22.7006ZM26.8047 22.6017C27.0875 22.6017 27.2974 22.4269 27.3896 22.1473L27.151 22.0581C27.1097 22.2743 26.996 22.3825 26.8045 22.3825C26.5914 22.3825 26.4452 22.2054 26.4452 21.95C26.4452 21.6863 26.5916 21.5145 26.8045 21.5145C26.9824 21.5145 27.1129 21.6354 27.151 21.8389L27.3925 21.7497C27.3593 21.6211 27.2845 21.5072 27.1797 21.4256C26.9346 21.2327 26.5835 21.256 26.366 21.4796C26.2483 21.6003 26.1879 21.7529 26.1879 21.9342C26.1879 22.1281 26.2451 22.2903 26.3565 22.4142C26.471 22.5378 26.6204 22.6017 26.8047 22.6017Z" fill="white"/>
</svg>
