<svg width="63" height="63" viewBox="0 0 63 63" fill="none" xmlns="http://www.w3.org/2000/svg">
<path fill-rule="evenodd" clip-rule="evenodd" d="M31.5 63.1579C14.0989 63.1579 0 49.0237 0 31.5789C0 14.1342 14.0989 0 31.5 0C48.9011 0 63 14.1342 63 31.5789C63 49.0237 48.9011 63.1579 31.5 63.1579ZM41.8057 21.1053C40.278 17.2079 36.4534 16.8579 31.9935 17.7211L30.4028 12.1711L27.0296 13.1474L28.5784 18.5553C27.6859 18.8026 26.7934 19.0789 25.8904 19.3553L24.3416 13.9184L20.9685 14.8842L22.5592 20.4368C21.8295 20.6632 21.1129 20.8789 20.4146 21.0842V21.0632L15.7605 22.4L16.7947 26.0079C16.7947 26.0079 19.2675 25.2474 19.2465 25.3079C20.6115 24.9079 21.2756 25.5763 21.6037 26.2237L23.4202 32.5553C23.5121 32.5237 23.6355 32.4947 23.7799 32.4737L23.4202 32.5763L25.9534 41.4368C26.0137 41.8895 25.9639 42.65 25.0084 42.9184C25.0609 42.9474 22.5592 43.6263 22.5592 43.6263L23.0396 47.8526L27.4286 46.5868C28.2503 46.3605 29.0483 46.1447 29.8489 45.9184L31.4475 51.5316L34.8232 50.5658L33.2325 45.0132C34.1355 44.7684 35.0385 44.5211 35.931 44.2632L37.5086 49.7947L40.8818 48.8289L39.2831 43.2158C44.8507 41.2632 48.4076 38.6921 47.3734 33.2132C46.5412 28.8026 43.9793 27.4684 40.5431 27.6105C42.2153 26.0579 42.9319 23.9526 41.8057 21.1053ZM40.5247 34.4684C41.7244 38.6605 34.4216 40.2447 32.1352 40.9026L30.0142 33.4605C32.3006 32.8026 39.2726 30.0895 40.5247 34.4684ZM35.9494 24.4132C37.0466 28.2368 30.9356 29.5132 29.0378 30.0579L27.111 23.3026C29.0089 22.7579 34.8128 20.4368 35.9494 24.4132Z" fill="#01CFE8"/>
</svg>
