<svg width="28" height="28" viewBox="0 0 28 28" fill="none" xmlns="http://www.w3.org/2000/svg">
<mask id="mask0" mask-type="alpha" maskUnits="userSpaceOnUse" x="0" y="0" width="28" height="28">
<path fill-rule="evenodd" clip-rule="evenodd" d="M0 0H28V28H0V0Z" fill="white"/>
</mask>
<g mask="url(#mask0)">
<path fill-rule="evenodd" clip-rule="evenodd" d="M28 14.0351C28 21.7883 21.7338 28.0702 14 28.0702C6.26617 28.0702 0 21.7883 0 14.0351C0 6.28187 6.26617 0 14 0C21.7338 0 28 6.28187 28 14.0351Z" fill="#F7931A"/>
</g>
<path fill-rule="evenodd" clip-rule="evenodd" d="M20.2895 12.2994C20.5671 10.4573 19.1683 9.47134 17.2585 8.81286L17.878 6.31812L16.3648 5.94385L15.764 8.36959C15.3673 8.269 14.9566 8.17309 14.5518 8.08187L15.1573 5.6421L13.6441 5.26315L13.0246 7.75321C12.6968 7.67953 12.3725 7.60233 12.0633 7.52514V7.51578L9.97614 6.99415L9.57481 8.61637C9.57481 8.61637 10.696 8.87251 10.6726 8.89122C11.284 9.04093 11.3983 9.44795 11.3796 9.77192L10.6726 12.6094C10.7146 12.6187 10.7683 12.6374 10.8278 12.6596L10.6691 12.6187L9.67981 16.5941C9.60631 16.7813 9.41497 17.0596 8.98681 16.9544C9.00081 16.9778 7.88897 16.6807 7.88897 16.6807L7.13647 18.4164L9.10581 18.9053C9.46981 19.0012 9.83031 19.0971 10.1815 19.1836L9.55614 21.7064L11.0693 22.0807L11.69 19.5906C12.0995 19.7053 12.5008 19.8058 12.8928 19.9064L12.2768 22.3871L13.79 22.7614L14.4141 20.2479C16.9936 20.7368 18.9315 20.5403 19.747 18.2012C20.4073 16.3193 19.7143 15.2316 18.361 14.524C19.3503 14.2959 20.0935 13.6468 20.2895 12.2994ZM16.835 17.1556C16.3695 19.0374 13.202 18.0187 12.1776 17.7672L13.0106 14.4281C14.0361 14.6842 17.3226 15.1906 16.835 17.1556ZM17.304 12.2713C16.8758 13.9848 14.2461 13.1123 13.3898 12.9017L14.1411 9.87251C14.9975 10.0877 17.7461 10.4854 17.304 12.2713Z" fill="white"/>
</svg>
