<svg width="63" height="63" viewBox="0 0 63 63" fill="none" xmlns="http://www.w3.org/2000/svg">
<mask id="mask0" mask-type="alpha" maskUnits="userSpaceOnUse" x="0" y="0" width="63" height="63">
<path fill-rule="evenodd" clip-rule="evenodd" d="M0 0H63V63H0V0Z" fill="white"/>
</mask>
<g mask="url(#mask0)">
<path fill-rule="evenodd" clip-rule="evenodd" d="M31.5 63.1579C14.0989 63.1579 0 49.0237 0 31.5789C0 14.1342 14.0989 0 31.5 0C48.9011 0 63 14.1342 63 31.5789C63 49.0237 48.9011 63.1579 31.5 63.1579ZM45.6514 27.6737C46.2761 23.5289 43.1287 21.3105 38.8316 19.8289L40.2255 14.2158L36.8209 13.3737L35.469 18.8316C34.5765 18.6053 33.6525 18.3895 32.7416 18.1842L34.104 12.6947L30.6994 11.8421L29.3055 17.4447C28.5679 17.2789 27.8381 17.1053 27.1425 16.9316V16.9105L22.4464 15.7368L21.5434 19.3868C21.5434 19.3868 24.066 19.9632 24.0135 20.0053C25.389 20.3421 25.6462 21.2579 25.6042 21.9868L24.0135 28.3711C24.108 28.3921 24.2288 28.4342 24.3626 28.4842L24.0056 28.3921L21.7796 37.3368C21.6142 37.7579 21.1838 38.3842 20.2204 38.1474C20.2519 38.2 17.7503 37.5316 17.7503 37.5316L16.0571 41.4368L20.4881 42.5368C21.3071 42.7526 22.1183 42.9684 22.9084 43.1632L21.5014 48.8395L24.906 49.6816L26.3025 44.0789C27.2239 44.3368 28.1269 44.5632 29.0089 44.7895L27.6229 50.3711L31.0275 51.2132L32.4319 45.5579C38.2358 46.6579 42.5959 46.2158 44.4307 40.9526C45.9165 36.7184 44.3573 34.2711 41.3123 32.6789C43.5383 32.1658 45.2104 30.7053 45.6514 27.6737ZM37.8787 38.6C36.8314 42.8342 29.7045 40.5421 27.3997 39.9763L29.274 32.4632C31.5814 33.0395 38.976 34.1789 37.8787 38.6ZM38.934 27.6105C37.9706 31.4658 32.0539 29.5026 30.1271 29.0289L31.8176 22.2132C33.7444 22.6974 39.9289 23.5921 38.934 27.6105Z" fill="#01CFE8"/>
</g>
</svg>
