<svg width="13" height="13" viewBox="0 0 13 13" fill="none" xmlns="http://www.w3.org/2000/svg">
<path d="M10.1292 9.37084C10.3458 9.58751 10.3458 9.91251 10.1292 10.1292C10.0208 10.2375 9.91251 10.2917 9.75001 10.2917C9.58751 10.2917 9.47918 10.2375 9.37084 10.1292L6.50001 7.25834L3.62918 10.1292C3.52084 10.2375 3.41251 10.2917 3.25001 10.2917C3.08751 10.2917 2.97918 10.2375 2.87084 10.1292C2.65418 9.91251 2.65418 9.58751 2.87084 9.37084L5.74168 6.50001L2.87084 3.62918C2.65418 3.41251 2.65418 3.08751 2.87084 2.87084C3.08751 2.65418 3.41251 2.65418 3.62918 2.87084L6.50001 5.74168L9.37084 2.87084C9.58751 2.65418 9.91251 2.65418 10.1292 2.87084C10.3458 3.08751 10.3458 3.41251 10.1292 3.62918L7.25834 6.50001L10.1292 9.37084Z" fill="black"/>
<mask id="mask0" mask-type="alpha" maskUnits="userSpaceOnUse" x="2" y="2" width="9" height="9">
<path d="M10.1292 9.37084C10.3458 9.58751 10.3458 9.91251 10.1292 10.1292C10.0208 10.2375 9.91251 10.2917 9.75001 10.2917C9.58751 10.2917 9.47918 10.2375 9.37084 10.1292L6.50001 7.25834L3.62918 10.1292C3.52084 10.2375 3.41251 10.2917 3.25001 10.2917C3.08751 10.2917 2.97918 10.2375 2.87084 10.1292C2.65418 9.91251 2.65418 9.58751 2.87084 9.37084L5.74168 6.50001L2.87084 3.62918C2.65418 3.41251 2.65418 3.08751 2.87084 2.87084C3.08751 2.65418 3.41251 2.65418 3.62918 2.87084L6.50001 5.74168L9.37084 2.87084C9.58751 2.65418 9.91251 2.65418 10.1292 2.87084C10.3458 3.08751 10.3458 3.41251 10.1292 3.62918L7.25834 6.50001L10.1292 9.37084Z" fill="white"/>
</mask>
<g mask="url(#mask0)">
<rect width="13" height="13" fill="white"/>
<rect width="13" height="13" fill="white"/>
</g>
</svg>
