<svg width="28" height="31" viewBox="0 0 28 31" fill="none" xmlns="http://www.w3.org/2000/svg">
<path d="M25.0521 11.0252L11.0252 25.0523C10.3912 25.6861 9.36352 25.6861 8.72973 25.0523L0.475341 16.798C-0.158447 16.1639 -0.158447 15.1362 0.475341 14.5025L14.5022 0.475341C15.1362 -0.158447 16.1639 -0.158447 16.7977 0.475341L25.0521 8.72973C25.6861 9.36352 25.6861 10.3914 25.0521 11.0252Z" fill="#8CBAFA"/>
<path d="M25.0521 8.72973L24.0221 7.69951C24.5865 8.26397 24.5301 9.23543 23.8963 9.86922L9.86917 23.8963C9.23538 24.5303 8.26393 24.5866 7.69946 24.0221L8.72968 25.0523C9.36347 25.6861 10.3912 25.6861 11.0252 25.0523L25.0521 11.0252C25.6861 10.3914 25.6861 9.36352 25.0521 8.72973Z" fill="#5692D8"/>
<path d="M3.17254 16.2206C3.0596 16.2206 2.94689 16.1775 2.86081 16.0914C2.68865 15.9192 2.68865 15.6403 2.86081 15.4682L9.73147 8.59751C9.90364 8.42535 10.1828 8.42535 10.3547 8.59751C10.5269 8.76968 10.5269 9.04881 10.3547 9.22074L3.48404 16.0916C3.39796 16.1775 3.28525 16.2206 3.17254 16.2206Z" fill="#252D4C"/>
<path d="M5.35601 18.4041C5.24307 18.4041 5.13036 18.361 5.04428 18.2749C4.87212 18.1027 4.87212 17.8238 5.04428 17.6517L11.9149 10.781C12.0871 10.6088 12.3662 10.6088 12.5382 10.781C12.7103 10.9532 12.7103 11.2323 12.5382 11.4042L5.66751 18.2749C5.58143 18.361 5.46872 18.4041 5.35601 18.4041Z" fill="#252D4C"/>
<path d="M14.2731 3.67251L12.8986 5.04683C12.3582 5.58719 12.3582 6.46315 12.8986 7.00351C13.4389 7.54387 14.3151 7.54387 14.8555 7.00351L16.2298 5.6292C16.7701 5.08884 16.7701 4.21287 16.2298 3.67251C15.6894 3.13215 14.8132 3.13215 14.2731 3.67251Z" fill="#FFCD34"/>
<path d="M26.3767 15.1677H6.53941C5.64302 15.1677 4.91626 15.8944 4.91626 16.7908V28.4644C4.91626 29.3608 5.64302 30.0875 6.53941 30.0875H26.3767C27.2733 30.0875 27.9998 29.3608 27.9998 28.4644V16.7908C28 15.8944 27.2733 15.1677 26.3767 15.1677Z" fill="#FFCD34"/>
<path d="M26.3767 15.1677H24.9238C25.8202 15.1677 26.547 15.8944 26.547 16.7908V28.4644C26.547 29.3608 25.8202 30.0875 24.9238 30.0875H26.3767C27.2733 30.0875 27.9998 29.3608 27.9998 28.4644V16.7908C28 15.8944 27.2733 15.1677 26.3767 15.1677Z" fill="#E69012"/>
<path d="M4.91626 18.835H28V21.6394H4.91626L4.91626 18.835Z" fill="#575B7A"/>
<path d="M26.547 18.835H27.9998V21.6394H26.547V18.835Z" fill="#252D4C"/>
<path d="M22.3264 26.1204V27.8501C22.3264 27.9839 22.4348 28.0923 22.5686 28.0923H25.3197C25.4536 28.0923 25.5619 27.9839 25.5619 27.8501V26.1204C25.5619 25.9866 25.4536 25.8783 25.3197 25.8783H22.5686C22.4348 25.8783 22.3264 25.9866 22.3264 26.1204H22.3264Z" fill="#E9E9EA"/>
<path d="M14.0314 26.1204V27.8501C14.0314 27.9839 14.1399 28.0923 14.2735 28.0923H20.0926C20.2265 28.0923 20.3348 27.9839 20.3348 27.8501V26.1204C20.3348 25.9866 20.2265 25.8783 20.0926 25.8783H14.2735C14.1399 25.8783 14.0314 25.9866 14.0314 26.1204H14.0314Z" fill="#E9E9EA"/>
<path d="M11.6594 28.533H8.76044C8.51689 28.533 8.3197 28.3356 8.3197 28.0923C8.3197 27.8487 8.51689 27.6515 8.76044 27.6515H11.6594C11.903 27.6515 12.1002 27.8487 12.1002 28.0923C12.1002 28.3356 11.903 28.533 11.6594 28.533Z" fill="#252D4C"/>
</svg>
