<svg width="63" height="63" viewBox="0 0 63 63" fill="none" xmlns="http://www.w3.org/2000/svg">
<mask id="mask0" mask-type="alpha" maskUnits="userSpaceOnUse" x="0" y="0" width="63" height="63">
<path fill-rule="evenodd" clip-rule="evenodd" d="M0 0H63V63H0V0Z" fill="white"/>
</mask>
<g mask="url(#mask0)">
<path fill-rule="evenodd" clip-rule="evenodd" d="M31.5 63.1579C14.0989 63.1579 0 49.0237 0 31.5789C0 14.1342 14.0989 0 31.5 0C48.9011 0 63 14.1342 63 31.5789C63 49.0237 48.9011 63.1579 31.5 63.1579ZM15.75 37.5105H19.677C21.8505 45.3947 27.0401 49.3421 35.2432 49.3421C38.3591 49.3421 41.0471 48.9211 43.3125 48.0684V43.3789C40.9343 44.3553 38.7503 44.8395 36.75 44.8395C33.9518 44.8395 31.8071 44.3053 30.3004 43.2368C28.7936 42.1579 27.51 40.2447 26.4548 37.5105H36.2171L37.7948 33.5526H25.6147C25.5622 32.8132 25.5334 31.9605 25.5334 31.0132C25.5334 30.2026 25.5622 29.5447 25.6357 29.05H39.6112L41.2099 25.1026H26.5991C27.993 20.5789 31.1509 18.3184 36.0623 18.3184C38.556 18.3079 41.0366 18.8211 43.3125 19.85V14.8632C40.8214 14.1553 38.2357 13.8053 35.6423 13.8158C27.4496 13.8158 22.1891 17.5789 19.8502 25.1026H17.3486L15.75 29.05H19.0733C18.9998 29.8737 18.9604 30.6947 18.9709 31.5184C18.9709 32.1763 18.9893 32.8526 19.0312 33.5526H17.3486L15.75 37.5105Z" fill="#6DD400"/>
</g>
</svg>
