<svg width="33" height="36" viewBox="0 0 33 36" fill="none" xmlns="http://www.w3.org/2000/svg">
<path fill="#6DD400" d="M29.6475 29.6936C27.6088 30.8863 25.2801 31.514 22.9135 31.514C15.497 31.514 9.46109 25.4497 9.46109 17.9978C9.46109 10.5458 15.4947 4.4815 22.9135 4.4815C25.2801 4.4815 27.6066 5.11147 29.6498 6.29966C30.7204 6.9229 32.0811 6.55748 32.6989 5.48362C33.3168 4.41425 32.9532 3.03998 31.887 2.42122C29.1657 0.836219 26.0631 0 22.9135 0C13.0367 0 5 8.07523 5 18C5 27.9248 13.0367 36 22.9135 36C26.0675 36 29.1724 35.1615 31.8892 33.5676C32.9532 32.9466 33.3146 31.5723 32.6967 30.5029C32.0788 29.4336 30.7137 29.0704 29.6475 29.6936Z" />
<path fill="#6DD400" d="M20.7 20H2.3C1.0304 20 0 21.1175 0 22.5C0 23.8825 1.0304 25 2.3 25H20.7C21.9696 25 23 23.8825 23 22.5C23 21.1175 21.9696 20 20.7 20Z" />
<path fill="#6DD400" d="M20.7 11H2.3C1.0304 11 0 12.1175 0 13.5C0 14.8825 1.0304 16 2.3 16H20.7C21.9696 16 23 14.8825 23 13.5C23 12.1175 21.9696 11 20.7 11Z" />
</svg>
