<svg width="20" height="20" viewBox="0 0 20 20" fill="#28C76F" xmlns="http://www.w3.org/2000/svg">
<path fill-rule="evenodd" clip-rule="evenodd" d="M18.6393 7.66665C18.2173 7.16665 17.6266 6.74998 16.9515 6.66665H16.5296H12.6477V4.16665C12.6477 2.33331 11.1287 0.833313 9.27219 0.833313C8.93464 0.833313 8.59709 0.99998 8.5127 1.33331L5.39034 8.33331H3.36502C1.93042 8.33331 0.833374 9.41665 0.833374 10.8333V16.6666C0.833374 18.0833 1.93042 19.1666 3.36502 19.1666H15.4325C16.6984 19.1666 17.711 18.25 17.9642 17.0833L19.1456 9.58331C19.23 8.91665 19.0612 8.24998 18.6393 7.66665ZM5.05278 17.5H3.36502C2.85869 17.5 2.52114 17.1666 2.52114 16.6666V10.8333C2.52114 10.3333 2.85869 9.99998 3.36502 9.99998H5.05278V17.5ZM15.4325 17.5C15.8545 17.5 16.192 17.25 16.2764 16.8333L17.5422 9.24998C17.5422 9.08332 17.5422 8.83332 17.3735 8.66665C17.2047 8.49998 17.0359 8.33332 16.7827 8.33332H16.614H11.8038C11.2975 8.33332 10.96 7.99998 10.96 7.49998V4.16665C10.96 3.41665 10.4536 2.83332 9.77852 2.58332L6.74054 9.33332V17.5H15.4325Z" fill="black"/>
<mask id="mask0" mask-type="alpha" maskUnits="userSpaceOnUse" x="0" y="0" width="20" height="20">
<path fill-rule="evenodd" clip-rule="evenodd" d="M18.6393 7.66665C18.2173 7.16665 17.6266 6.74998 16.9515 6.66665H16.5296H12.6477V4.16665C12.6477 2.33331 11.1287 0.833313 9.27219 0.833313C8.93464 0.833313 8.59709 0.99998 8.5127 1.33331L5.39034 8.33331H3.36502C1.93042 8.33331 0.833374 9.41665 0.833374 10.8333V16.6666C0.833374 18.0833 1.93042 19.1666 3.36502 19.1666H15.4325C16.6984 19.1666 17.711 18.25 17.9642 17.0833L19.1456 9.58331C19.23 8.91665 19.0612 8.24998 18.6393 7.66665ZM5.05278 17.5H3.36502C2.85869 17.5 2.52114 17.1666 2.52114 16.6666V10.8333C2.52114 10.3333 2.85869 9.99998 3.36502 9.99998H5.05278V17.5ZM15.4325 17.5C15.8545 17.5 16.192 17.25 16.2764 16.8333L17.5422 9.24998C17.5422 9.08332 17.5422 8.83332 17.3735 8.66665C17.2047 8.49998 17.0359 8.33332 16.7827 8.33332H16.614H11.8038C11.2975 8.33332 10.96 7.99998 10.96 7.49998V4.16665C10.96 3.41665 10.4536 2.83332 9.77852 2.58332L6.74054 9.33332V17.5H15.4325Z" fill="white"/>
</mask>
<g mask="url(#mask0)">
<rect width="20" height="20" fill="#28C76F"/>
</g>
</svg>
