<svg width="25" height="24" viewBox="0 0 25 24" fill="none" xmlns="http://www.w3.org/2000/svg">
<path fill-rule="evenodd" clip-rule="evenodd" d="M12.8925 23C18.9925 23 23.8925 18.1 23.8925 12C23.8925 5.9 18.9925 1 12.8925 1C6.79246 1 1.89246 5.9 1.89246 12C1.89246 18.1 6.79246 23 12.8925 23ZM13.0925 13.9C13.4925 13.8 16.7925 12.6 16.7925 10C16.7925 8.3 15.6925 6.8 14.0925 6.3C11.9925 5.5 9.69246 6.6 8.99246 8.7C8.89246 9.2 9.09246 9.8 9.59246 9.8C10.0925 10 10.6925 9.7 10.8925 9.2C11.2925 8.2 12.4925 7.6 13.4925 8C14.2925 8.3 14.7925 9 14.7925 9.9C14.7925 11 13.0925 11.8 12.4925 12C11.9925 12.2 11.6925 12.8 11.8925 13.3C11.9925 13.7 12.3925 14 12.7925 14C12.8925 14 12.9925 14 13.0925 13.9ZM21.8925 12C21.8925 7 17.8925 3 12.8925 3C7.89246 3 3.89246 7 3.89246 12C3.89246 17 7.89246 21 12.8925 21C17.8925 21 21.8925 17 21.8925 12ZM13.3925 16.2C13.4925 16.2 13.5925 16.3 13.5925 16.3C13.6925 16.4 13.7925 16.5 13.6925 16.6C13.7925 16.7 13.7925 16.9 13.7925 17C13.7925 17.3 13.6925 17.5 13.4925 17.7C13.2925 17.9 13.0925 18 12.7925 18C12.4925 18 12.2925 17.9 12.0925 17.7C11.8925 17.5 11.7925 17.3 11.7925 17C11.7925 16.8828 11.8268 16.8 11.8552 16.7314C11.8753 16.6828 11.8925 16.6414 11.8925 16.6C11.8925 16.5 11.9925 16.4 12.0925 16.3C12.1925 16.2 12.2925 16.1 12.3925 16.1C12.5925 16 12.7925 16 12.9925 16C13.05 16.0575 13.0744 16.0819 13.1038 16.0923C13.1255 16.1 13.15 16.1 13.1925 16.1C13.2425 16.1 13.2675 16.125 13.2925 16.15C13.3175 16.175 13.3425 16.2 13.3925 16.2Z" fill="black"/>
<mask id="mask0" mask-type="alpha" maskUnits="userSpaceOnUse" x="1" y="1" width="23" height="22">
<path fill-rule="evenodd" clip-rule="evenodd" d="M12.8925 23C18.9925 23 23.8925 18.1 23.8925 12C23.8925 5.9 18.9925 1 12.8925 1C6.79246 1 1.89246 5.9 1.89246 12C1.89246 18.1 6.79246 23 12.8925 23ZM13.0925 13.9C13.4925 13.8 16.7925 12.6 16.7925 10C16.7925 8.3 15.6925 6.8 14.0925 6.3C11.9925 5.5 9.69246 6.6 8.99246 8.7C8.89246 9.2 9.09246 9.8 9.59246 9.8C10.0925 10 10.6925 9.7 10.8925 9.2C11.2925 8.2 12.4925 7.6 13.4925 8C14.2925 8.3 14.7925 9 14.7925 9.9C14.7925 11 13.0925 11.8 12.4925 12C11.9925 12.2 11.6925 12.8 11.8925 13.3C11.9925 13.7 12.3925 14 12.7925 14C12.8925 14 12.9925 14 13.0925 13.9ZM21.8925 12C21.8925 7 17.8925 3 12.8925 3C7.89246 3 3.89246 7 3.89246 12C3.89246 17 7.89246 21 12.8925 21C17.8925 21 21.8925 17 21.8925 12ZM13.3925 16.2C13.4925 16.2 13.5925 16.3 13.5925 16.3C13.6925 16.4 13.7925 16.5 13.6925 16.6C13.7925 16.7 13.7925 16.9 13.7925 17C13.7925 17.3 13.6925 17.5 13.4925 17.7C13.2925 17.9 13.0925 18 12.7925 18C12.4925 18 12.2925 17.9 12.0925 17.7C11.8925 17.5 11.7925 17.3 11.7925 17C11.7925 16.8828 11.8268 16.8 11.8552 16.7314C11.8753 16.6828 11.8925 16.6414 11.8925 16.6C11.8925 16.5 11.9925 16.4 12.0925 16.3C12.1925 16.2 12.2925 16.1 12.3925 16.1C12.5925 16 12.7925 16 12.9925 16C13.05 16.0575 13.0744 16.0819 13.1038 16.0923C13.1255 16.1 13.15 16.1 13.1925 16.1C13.2425 16.1 13.2675 16.125 13.2925 16.15C13.3175 16.175 13.3425 16.2 13.3925 16.2Z" fill="white"/>
</mask>
<g mask="url(#mask0)">
<rect x="0.892456" width="24" height="24" fill="#B4B7BD"/>
</g>
</svg>
