<svg width="20" height="20" viewBox="0 0 20 20" fill="none" xmlns="http://www.w3.org/2000/svg">
<path fill-rule="evenodd" clip-rule="evenodd" d="M15.8333 2.49999H14.1667V1.66666C14.1667 1.16666 13.8333 0.833328 13.3333 0.833328C12.8333 0.833328 12.5 1.16666 12.5 1.66666V2.49999H7.50001V1.66666C7.50001 1.16666 7.16667 0.833328 6.66667 0.833328C6.16667 0.833328 5.83334 1.16666 5.83334 1.66666V2.49999H4.16667C2.75001 2.49999 1.66667 3.58333 1.66667 4.99999V16.6667C1.66667 18.0833 2.75001 19.1667 4.16667 19.1667H15.8333C17.25 19.1667 18.3333 18.0833 18.3333 16.6667V4.99999C18.3333 3.58333 17.25 2.49999 15.8333 2.49999ZM4.16667 4.16666H5.83334V4.99999C5.83334 5.49999 6.16667 5.83333 6.66667 5.83333C7.16667 5.83333 7.5 5.49999 7.5 4.99999V4.16666H12.5V4.99999C12.5 5.49999 12.8333 5.83333 13.3333 5.83333C13.8333 5.83333 14.1667 5.49999 14.1667 4.99999V4.16666H15.8333C16.3333 4.16666 16.6667 4.49999 16.6667 4.99999V7.49999H3.33334V4.99999C3.33334 4.49999 3.66667 4.16666 4.16667 4.16666ZM4.16667 17.5H15.8333C16.3333 17.5 16.6667 17.1667 16.6667 16.6667V9.16666H3.33334V16.6667C3.33334 17.1667 3.66667 17.5 4.16667 17.5Z" fill="black"/>
<mask id="mask0" mask-type="alpha" maskUnits="userSpaceOnUse" x="1" y="0" width="18" height="20">
<path fill-rule="evenodd" clip-rule="evenodd" d="M15.8333 2.49999H14.1667V1.66666C14.1667 1.16666 13.8333 0.833328 13.3333 0.833328C12.8333 0.833328 12.5 1.16666 12.5 1.66666V2.49999H7.50001V1.66666C7.50001 1.16666 7.16667 0.833328 6.66667 0.833328C6.16667 0.833328 5.83334 1.16666 5.83334 1.66666V2.49999H4.16667C2.75001 2.49999 1.66667 3.58333 1.66667 4.99999V16.6667C1.66667 18.0833 2.75001 19.1667 4.16667 19.1667H15.8333C17.25 19.1667 18.3333 18.0833 18.3333 16.6667V4.99999C18.3333 3.58333 17.25 2.49999 15.8333 2.49999ZM4.16667 4.16666H5.83334V4.99999C5.83334 5.49999 6.16667 5.83333 6.66667 5.83333C7.16667 5.83333 7.5 5.49999 7.5 4.99999V4.16666H12.5V4.99999C12.5 5.49999 12.8333 5.83333 13.3333 5.83333C13.8333 5.83333 14.1667 5.49999 14.1667 4.99999V4.16666H15.8333C16.3333 4.16666 16.6667 4.49999 16.6667 4.99999V7.49999H3.33334V4.99999C3.33334 4.49999 3.66667 4.16666 4.16667 4.16666ZM4.16667 17.5H15.8333C16.3333 17.5 16.6667 17.1667 16.6667 16.6667V9.16666H3.33334V16.6667C3.33334 17.1667 3.66667 17.5 4.16667 17.5Z" fill="white"/>
</mask>
<g mask="url(#mask0)">
<rect width="20" height="20" fill="#B4B7BD"/>
</g>
</svg>
