<svg width="18" height="18" viewBox="0 0 18 18" fill="none" xmlns="http://www.w3.org/2000/svg">
<path fill-rule="evenodd" clip-rule="evenodd" d="M9 0.75C4.425 0.75 0.75 4.425 0.75 9C0.75 13.575 4.425 17.25 9 17.25C13.575 17.25 17.25 13.575 17.25 9C17.25 4.425 13.575 0.75 9 0.75ZM9 15.75C5.25 15.75 2.25 12.75 2.25 9C2.25 5.25 5.25 2.25 9 2.25C12.75 2.25 15.75 5.25 15.75 9C15.75 12.75 12.75 15.75 9 15.75ZM12.7029 8.79853C12.6879 8.76213 12.675 8.73107 12.675 8.7C12.675 8.625 12.6 8.55 12.525 8.475L9.525 5.475C9.225 5.175 8.775 5.175 8.475 5.475C8.175 5.775 8.175 6.225 8.475 6.525L10.2 8.25H6C5.55 8.25 5.25 8.55 5.25 9C5.25 9.45 5.55 9.75 6 9.75H10.2L8.475 11.475C8.175 11.775 8.175 12.225 8.475 12.525C8.625 12.675 8.775 12.75 9 12.75C9.225 12.75 9.375 12.675 9.525 12.525L12.525 9.525C12.6 9.45 12.675 9.375 12.675 9.3C12.75 9.225 12.75 9.075 12.75 9C12.75 8.91213 12.7243 8.85 12.7029 8.79853Z" fill="black"/>
<mask id="mask0" mask-type="alpha" maskUnits="userSpaceOnUse" x="0" y="0" width="18" height="18">
<path fill-rule="evenodd" clip-rule="evenodd" d="M9 0.75C4.425 0.75 0.75 4.425 0.75 9C0.75 13.575 4.425 17.25 9 17.25C13.575 17.25 17.25 13.575 17.25 9C17.25 4.425 13.575 0.75 9 0.75ZM9 15.75C5.25 15.75 2.25 12.75 2.25 9C2.25 5.25 5.25 2.25 9 2.25C12.75 2.25 15.75 5.25 15.75 9C15.75 12.75 12.75 15.75 9 15.75ZM12.7029 8.79853C12.6879 8.76213 12.675 8.73107 12.675 8.7C12.675 8.625 12.6 8.55 12.525 8.475L9.525 5.475C9.225 5.175 8.775 5.175 8.475 5.475C8.175 5.775 8.175 6.225 8.475 6.525L10.2 8.25H6C5.55 8.25 5.25 8.55 5.25 9C5.25 9.45 5.55 9.75 6 9.75H10.2L8.475 11.475C8.175 11.775 8.175 12.225 8.475 12.525C8.625 12.675 8.775 12.75 9 12.75C9.225 12.75 9.375 12.675 9.525 12.525L12.525 9.525C12.6 9.45 12.675 9.375 12.675 9.3C12.75 9.225 12.75 9.075 12.75 9C12.75 8.91213 12.7243 8.85 12.7029 8.79853Z" fill="white"/>
</mask>
<g mask="url(#mask0)">
<rect width="18" height="18" fill="#B4B7BD"/>
</g>
</svg>
