<svg width="20" height="27" viewBox="0 0 20 27" fill="none" xmlns="http://www.w3.org/2000/svg">
<g filter="url(#filter0_d)">

<mask id="mask0" mask-type="alpha" maskUnits="userSpaceOnUse" x="4" y="0" width="12" height="19">
<path fill-rule="evenodd" clip-rule="evenodd" d="M12.0927 8.78946H10.9677V5.03946H13.9677C14.4177 5.03946 14.7177 4.73946 14.7177 4.28946C14.7177 3.83946 14.4177 3.53946 13.9677 3.53946H10.9677V1.28946C10.9677 0.839459 10.6677 0.539459 10.2177 0.539459C9.76769 0.539459 9.46769 0.839459 9.46769 1.28946V3.53946H8.34269C6.46769 3.53946 4.96769 5.03946 4.96769 6.91446C4.96769 8.78946 6.46769 10.2895 8.34269 10.2895H9.46769V14.0395H5.71769C5.26769 14.0395 4.96769 14.3395 4.96769 14.7895C4.96769 15.2395 5.26769 15.5395 5.71769 15.5395H9.46769V17.7895C9.46769 18.2395 9.76769 18.5395 10.2177 18.5395C10.6677 18.5395 10.9677 18.2395 10.9677 17.7895V15.5395H12.0927C13.9677 15.5395 15.4677 14.0395 15.4677 12.1645C15.4677 10.2895 13.9677 8.78946 12.0927 8.78946ZM8.34269 8.78946C7.29269 8.78946 6.46769 7.96446 6.46769 6.91446C6.46769 5.86446 7.29269 5.03946 8.34269 5.03946H9.46769V8.78946H8.34269ZM10.9677 14.0395H12.0927C13.1427 14.0395 13.9677 13.2145 13.9677 12.1645C13.9677 11.1145 13.1427 10.2895 12.0927 10.2895H10.9677V14.0395Z" fill="white"/>
</mask>
<g mask="url(#mask0)">
<rect x="1.21769" y="0.539459" width="18" height="18" fill="#FF9F43"/>
</g>
</g>
<defs>
<filter id="filter0_d" x="-2.78231" y="0.539459" width="26" height="26" filterUnits="userSpaceOnUse" color-interpolation-filters="sRGB">
<feFlood flood-opacity="0" result="BackgroundImageFix"/>





<feBlend mode="normal" in="SourceGraphic" in2="effect1_dropShadow" result="shape"/>
</filter>
</defs>
</svg>
