<svg width="27" height="29" viewBox="0 0 27 29" fill="none" xmlns="http://www.w3.org/2000/svg">
<g filter="url(#filter0_d)">
<path fill-rule="evenodd" clip-rule="evenodd" d="M19.7638 2.33334H6.93048C5.37215 2.33334 4.18048 3.52501 4.18048 5.08334V17.9167C4.18048 19.475 5.37215 20.6667 6.93048 20.6667H19.7638C21.3221 20.6667 22.5138 19.475 22.5138 17.9167V5.08334C22.5138 3.52501 21.3221 2.33334 19.7638 2.33334ZM6.01381 5.08334C6.01381 4.53334 6.38048 4.16668 6.93048 4.16668H19.7638C20.3138 4.16668 20.6805 4.53334 20.6805 5.08334V12.05L17.6555 9.02501C17.2888 8.65834 16.7388 8.65834 16.3721 9.02501L6.65548 18.7417C6.28881 18.65 6.01381 18.2833 6.01381 17.9167V5.08334ZM9.13048 18.8333H19.7638C20.3138 18.8333 20.6805 18.4667 20.6805 17.9167V14.6167L17.0138 10.95L9.13048 18.8333ZM10.1388 10.5833C11.4221 10.5833 12.4305 9.57501 12.4305 8.29168C12.4305 7.00834 11.4221 6.00001 10.1388 6.00001C8.85548 6.00001 7.84715 7.00834 7.84715 8.29168C7.84715 9.57501 8.85548 10.5833 10.1388 10.5833ZM10.5971 8.29168C10.5971 8.01668 10.4138 7.83334 10.1388 7.83334C9.86381 7.83334 9.68048 8.01668 9.68048 8.29168C9.68048 8.56668 9.86381 8.75001 10.1388 8.75001C10.4138 8.75001 10.5971 8.56668 10.5971 8.29168Z" fill="black"/>
<mask id="mask0" mask-type="alpha" maskUnits="userSpaceOnUse" x="4" y="2" width="19" height="19">
<path fill-rule="evenodd" clip-rule="evenodd" d="M19.7638 2.33334H6.93048C5.37215 2.33334 4.18048 3.52501 4.18048 5.08334V17.9167C4.18048 19.475 5.37215 20.6667 6.93048 20.6667H19.7638C21.3221 20.6667 22.5138 19.475 22.5138 17.9167V5.08334C22.5138 3.52501 21.3221 2.33334 19.7638 2.33334ZM6.01381 5.08334C6.01381 4.53334 6.38048 4.16668 6.93048 4.16668H19.7638C20.3138 4.16668 20.6805 4.53334 20.6805 5.08334V12.05L17.6555 9.02501C17.2888 8.65834 16.7388 8.65834 16.3721 9.02501L6.65548 18.7417C6.28881 18.65 6.01381 18.2833 6.01381 17.9167V5.08334ZM9.13048 18.8333H19.7638C20.3138 18.8333 20.6805 18.4667 20.6805 17.9167V14.6167L17.0138 10.95L9.13048 18.8333ZM10.1388 10.5833C11.4221 10.5833 12.4305 9.57501 12.4305 8.29168C12.4305 7.00834 11.4221 6.00001 10.1388 6.00001C8.85548 6.00001 7.84715 7.00834 7.84715 8.29168C7.84715 9.57501 8.85548 10.5833 10.1388 10.5833ZM10.5971 8.29168C10.5971 8.01668 10.4138 7.83334 10.1388 7.83334C9.86381 7.83334 9.68048 8.01668 9.68048 8.29168C9.68048 8.56668 9.86381 8.75001 10.1388 8.75001C10.4138 8.75001 10.5971 8.56668 10.5971 8.29168Z" fill="white"/>
</mask>
<g mask="url(#mask0)">
<rect x="2.34717" y="0.5" width="22" height="22" fill="#B4B7BD"/>
</g>
</g>
<defs>
<filter id="filter0_d" x="-1.65283" y="0.5" width="30" height="30" filterUnits="userSpaceOnUse" color-interpolation-filters="sRGB">
<feFlood flood-opacity="0" result="BackgroundImageFix"/>
<feColorMatrix in="SourceAlpha" type="matrix" values="0 0 0 0 0 0 0 0 0 0 0 0 0 0 0 0 0 0 127 0"/>
<feOffset dy="4"/>
<feGaussianBlur stdDeviation="2"/>
<feColorMatrix type="matrix" values="0 0 0 0 0 0 0 0 0 0 0 0 0 0 0 0 0 0 0.25 0"/>
<feBlend mode="normal" in2="BackgroundImageFix" result="effect1_dropShadow"/>
<feBlend mode="normal" in="SourceGraphic" in2="effect1_dropShadow" result="shape"/>
</filter>
</defs>
</svg>
