<svg
            class="icon-color"
            width="11"
            height="14"
            viewBox="0 0 11 14"
            fill="#C6CACE"
            xmlns="http://www.w3.org/2000/svg"
          >
            <path
              fill-rule="evenodd"
              clip-rule="evenodd"
              d="M2.50787 0H6.78232C9.05874 0 10.9999 1.78115 11 4.09492C11 6.3529 9.10796 8.1899 6.78232 8.1899H3.306V9.96015H6.78232C7.2231 9.96015 7.58045 10.3071 7.58045 10.7351C7.58045 11.163 7.2231 11.51 6.78232 11.51H3.306V13.2251C3.306 13.653 2.94865 14 2.50787 14C2.0671 14 1.70975 13.653 1.70975 13.2251V11.51H0.798127C0.357348 11.51 0 11.163 0 10.7351C0 10.3071 0.357348 9.96015 0.798127 9.96015H1.70975V8.1899H0.798127C0.357348 8.1899 0 7.84294 0 7.41499C0 6.98703 0.357348 6.64008 0.798127 6.64008H1.70975V0.774908C1.70975 0.346952 2.0671 0 2.50787 0ZM3.4375 6.66667H6.76902C8.15427 6.66667 9.2812 5.54521 9.28125 4.16669C9.28125 2.77188 8.14591 1.66667 6.76902 1.66667H3.4375V6.66667Z"
            />
          </svg>