<svg width="18" height="18" viewBox="0 0 18 18" fill="none" xmlns="http://www.w3.org/2000/svg">
<path fill-rule="evenodd" clip-rule="evenodd" d="M9 0.75C4.425 0.75 0.75 4.425 0.75 9C0.75 13.575 4.425 17.25 9 17.25C13.575 17.25 17.25 13.575 17.25 9C17.25 4.425 13.575 0.75 9 0.75ZM9 15.75C5.25 15.75 2.25 12.75 2.25 9C2.25 5.25 5.25 2.25 9 2.25C12.75 2.25 15.75 5.25 15.75 9C15.75 12.75 12.75 15.75 9 15.75ZM12 9.75C12.45 9.75 12.75 9.45 12.75 9C12.75 8.55 12.45 8.25 12 8.25H9.75V6C9.75 5.55 9.45 5.25 9 5.25C8.55 5.25 8.25 5.55 8.25 6V8.25H6C5.55 8.25 5.25 8.55 5.25 9C5.25 9.45 5.55 9.75 6 9.75H8.25V12C8.25 12.45 8.55 12.75 9 12.75C9.45 12.75 9.75 12.45 9.75 12V9.75H12Z" fill="black"/>
<mask id="mask0" mask-type="alpha" maskUnits="userSpaceOnUse" x="0" y="0" width="18" height="18">
<path fill-rule="evenodd" clip-rule="evenodd" d="M9 0.75C4.425 0.75 0.75 4.425 0.75 9C0.75 13.575 4.425 17.25 9 17.25C13.575 17.25 17.25 13.575 17.25 9C17.25 4.425 13.575 0.75 9 0.75ZM9 15.75C5.25 15.75 2.25 12.75 2.25 9C2.25 5.25 5.25 2.25 9 2.25C12.75 2.25 15.75 5.25 15.75 9C15.75 12.75 12.75 15.75 9 15.75ZM12 9.75C12.45 9.75 12.75 9.45 12.75 9C12.75 8.55 12.45 8.25 12 8.25H9.75V6C9.75 5.55 9.45 5.25 9 5.25C8.55 5.25 8.25 5.55 8.25 6V8.25H6C5.55 8.25 5.25 8.55 5.25 9C5.25 9.45 5.55 9.75 6 9.75H8.25V12C8.25 12.45 8.55 12.75 9 12.75C9.45 12.75 9.75 12.45 9.75 12V9.75H12Z" fill="white"/>
</mask>
<g mask="url(#mask0)">
<rect width="18" height="18" fill="#B4B7BD"/>
</g>
</svg>
