<svg
            class="icon-color"
            width="11"
            height="13"
            viewBox="0 0 11 13"
            fill="#6E6B7B"
            xmlns="http://www.w3.org/2000/svg"
          >
            <path
              d="M9.88252 10.7227C9.20295 11.1534 8.42672 11.3801 7.63785 11.3801C5.16566 11.3801 3.1537 9.19019 3.1537 6.49919C3.1537 3.8082 5.16491 1.61832 7.63785 1.61832C8.42672 1.61832 9.2022 1.84581 9.88326 2.27488C10.2402 2.49994 10.6937 2.36798 10.8996 1.9802C11.1056 1.59403 10.9844 1.09777 10.629 0.874331C9.72192 0.301968 8.68769 0 7.63785 0C4.34556 0 1.66667 2.91605 1.66667 6.5C1.66667 10.0839 4.34556 13 7.63785 13C8.68918 13 9.72415 12.6972 10.6298 12.1216C10.9844 11.8974 11.1049 11.4011 10.8989 11.0149C10.693 10.6288 10.2379 10.4976 9.88252 10.7227Z"
            />
            <path
              d="M6.9 7.22217H0.766667C0.343467 7.22217 0 7.63724 0 8.15074C0 8.66424 0.343467 9.07931 0.766667 9.07931H6.9C7.3232 9.07931 7.66667 8.66424 7.66667 8.15074C7.66667 7.63724 7.3232 7.22217 6.9 7.22217Z"
            />
            <path
              d="M6.9 3.97217H0.766667C0.343467 3.97217 0 4.38724 0 4.90074C0 5.41424 0.343467 5.82931 0.766667 5.82931H6.9C7.3232 5.82931 7.66667 5.41424 7.66667 4.90074C7.66667 4.38724 7.3232 3.97217 6.9 3.97217Z"
            />
          </svg>