<svg width="18" height="18" viewBox="0 0 18 18" fill="none" xmlns="http://www.w3.org/2000/svg">
<path fill-rule="evenodd" clip-rule="evenodd" d="M17.887 7.87443C17.9059 7.85568 17.9247 7.83693 17.9247 7.79943C18 7.72442 18 7.64942 18 7.57441V7.49941V2.99911C18 2.54908 17.6987 2.24906 17.2469 2.24906C16.795 2.24906 16.4937 2.54908 16.4937 2.99911V5.77429L14.2343 3.74916C13.4812 2.92411 12.5021 2.32407 11.4477 1.94904C9.56486 1.274 7.53138 1.349 5.72385 2.24906C3.91632 3.07412 2.56067 4.57421 1.88285 6.52434C1.73222 6.89937 1.95816 7.3494 2.33473 7.4244C2.7113 7.57441 3.16318 7.3494 3.31381 6.97437C3.84101 5.47427 4.8954 4.27419 6.40168 3.59915C7.83264 2.92411 9.48954 2.8491 10.9958 3.37413C11.8243 3.67415 12.5774 4.12418 13.2552 4.79923L15.364 6.74936H12.728C12.2762 6.74936 11.9749 7.04938 11.9749 7.49941C11.9749 7.94944 12.2762 8.24946 12.728 8.24946H17.2469C17.3222 8.24946 17.4728 8.24946 17.5481 8.17445C17.6234 8.17445 17.6987 8.09945 17.7741 8.02445L17.7741 8.02444C17.8494 8.02444 17.8494 7.94944 17.8494 7.94944C17.8494 7.91193 17.8682 7.89318 17.887 7.87443ZM14.6109 11.0246C14.7615 10.6496 15.2134 10.4246 15.59 10.5746C15.9665 10.6496 16.1925 11.0996 16.1172 11.5496C15.7406 12.5997 15.0628 13.5748 14.3096 14.3248C12.8787 15.7499 10.9958 16.5 8.96234 16.5C6.92887 16.5 5.04603 15.7499 3.69038 14.2498L1.50628 12.1497V14.9249C1.50628 15.3749 1.20502 15.6749 0.753138 15.6749C0.301255 15.6749 0 15.3749 0 14.9249V10.4246V10.3496V10.1996C0 10.1621 0.0188283 10.1433 0.0376567 10.1246C0.0564852 10.1058 0.0753138 10.0871 0.0753138 10.0495C0.150628 10.0495 0.150628 9.97454 0.150628 9.97454C0.150628 9.89954 0.225941 9.82453 0.301255 9.82453C0.301255 9.74953 0.376569 9.74953 0.376569 9.74953H0.527197H0.677824H5.19665C5.64854 9.74953 5.94979 10.0495 5.94979 10.4996C5.94979 10.9496 5.64854 11.2496 5.19665 11.2496H2.56067L4.66946 13.1998C5.87448 14.3998 7.38075 14.9999 8.96234 14.9999C10.5439 14.9999 12.1255 14.3998 13.1799 13.2748C13.8577 12.6747 14.3096 11.8497 14.6109 11.0246Z" fill="black"/>
<mask id="mask0" mask-type="alpha" maskUnits="userSpaceOnUse" x="0" y="1" width="18" height="16">
<path fill-rule="evenodd" clip-rule="evenodd" d="M17.887 7.87443C17.9059 7.85568 17.9247 7.83693 17.9247 7.79943C18 7.72442 18 7.64942 18 7.57441V7.49941V2.99911C18 2.54908 17.6987 2.24906 17.2469 2.24906C16.795 2.24906 16.4937 2.54908 16.4937 2.99911V5.77429L14.2343 3.74916C13.4812 2.92411 12.5021 2.32407 11.4477 1.94904C9.56486 1.274 7.53138 1.349 5.72385 2.24906C3.91632 3.07412 2.56067 4.57421 1.88285 6.52434C1.73222 6.89937 1.95816 7.3494 2.33473 7.4244C2.7113 7.57441 3.16318 7.3494 3.31381 6.97437C3.84101 5.47427 4.8954 4.27419 6.40168 3.59915C7.83264 2.92411 9.48954 2.8491 10.9958 3.37413C11.8243 3.67415 12.5774 4.12418 13.2552 4.79923L15.364 6.74936H12.728C12.2762 6.74936 11.9749 7.04938 11.9749 7.49941C11.9749 7.94944 12.2762 8.24946 12.728 8.24946H17.2469C17.3222 8.24946 17.4728 8.24946 17.5481 8.17445C17.6234 8.17445 17.6987 8.09945 17.7741 8.02445L17.7741 8.02444C17.8494 8.02444 17.8494 7.94944 17.8494 7.94944C17.8494 7.91193 17.8682 7.89318 17.887 7.87443ZM14.6109 11.0246C14.7615 10.6496 15.2134 10.4246 15.59 10.5746C15.9665 10.6496 16.1925 11.0996 16.1172 11.5496C15.7406 12.5997 15.0628 13.5748 14.3096 14.3248C12.8787 15.7499 10.9958 16.5 8.96234 16.5C6.92887 16.5 5.04603 15.7499 3.69038 14.2498L1.50628 12.1497V14.9249C1.50628 15.3749 1.20502 15.6749 0.753138 15.6749C0.301255 15.6749 0 15.3749 0 14.9249V10.4246V10.3496V10.1996C0 10.1621 0.0188283 10.1433 0.0376567 10.1246C0.0564852 10.1058 0.0753138 10.0871 0.0753138 10.0495C0.150628 10.0495 0.150628 9.97454 0.150628 9.97454C0.150628 9.89954 0.225941 9.82453 0.301255 9.82453C0.301255 9.74953 0.376569 9.74953 0.376569 9.74953H0.527197H0.677824H5.19665C5.64854 9.74953 5.94979 10.0495 5.94979 10.4996C5.94979 10.9496 5.64854 11.2496 5.19665 11.2496H2.56067L4.66946 13.1998C5.87448 14.3998 7.38075 14.9999 8.96234 14.9999C10.5439 14.9999 12.1255 14.3998 13.1799 13.2748C13.8577 12.6747 14.3096 11.8497 14.6109 11.0246Z" fill="white"/>
</mask>
<g mask="url(#mask0)">
<rect width="18" height="18" fill="#B4B7BD"/>
</g>
</svg>
