<svg
            class="icon-color"
            width="11"
            height="17"
            viewBox="0 0 11 17"
            fill="#7367F0"
            xmlns="http://www.w3.org/2000/svg"
          >
            <path
              d="M5.29412 7.55556C3.57247 7.55556 2.11765 6.69044 2.11765 5.66667C2.11765 4.64289 3.57247 3.77778 5.29412 3.77778C6.26824 3.77778 7.17035 4.04978 7.76753 4.522C8.20376 4.86767 8.87082 4.83556 9.26259 4.44267C9.65224 4.05356 9.612 3.45667 9.17365 3.10911C8.43247 2.52167 7.43718 2.125 6.35294 1.96822V0.944444C6.35294 0.423111 5.87859 0 5.29412 0C4.70965 0 4.23529 0.423111 4.23529 0.944444V1.96444C1.82118 2.31578 0 3.842 0 5.66667C0 7.75011 2.376 9.44444 5.29412 9.44444C7.01576 9.44444 8.47059 10.3096 8.47059 11.3333C8.47059 12.3571 7.01576 13.2222 5.29412 13.2222C4.32 13.2222 3.41788 12.9502 2.82071 12.478C2.38447 12.1304 1.71529 12.1644 1.32565 12.5573C0.936 12.9464 0.976235 13.5433 1.41459 13.8909C2.15576 14.4802 3.15106 14.875 4.23529 15.0337V16.0556C4.23529 16.5769 4.70965 17 5.29412 17C5.87859 17 6.35294 16.5769 6.35294 16.0556V15.0356C8.76706 14.6842 10.5882 13.158 10.5882 11.3333C10.5882 9.24989 8.21224 7.55556 5.29412 7.55556Z"
            />
          </svg>