<svg width="20" height="20" viewBox="0 0 20 20" fill="none" xmlns="http://www.w3.org/2000/svg">
<path fill-rule="evenodd" clip-rule="evenodd" d="M17.3333 6.20834C17.3542 6.25 17.375 6.29167 17.4167 6.33334C17.5 6.41667 17.5 6.58334 17.5 6.66667V16.6667C17.5 18.0833 16.4167 19.1667 15 19.1667H5C3.58333 19.1667 2.5 18.0833 2.5 16.6667V3.33334C2.5 1.91667 3.58333 0.833336 5 0.833336H11.6667C11.75 0.833336 11.9167 0.833336 12 0.916669C12.0833 0.916669 12.1667 1 12.25 1.08334L17.25 6.08334C17.2917 6.125 17.3125 6.16667 17.3333 6.20834ZM14.6667 5.83335L12.5 3.66669V5.83335H14.6667ZM15 17.5H5C4.5 17.5 4.16667 17.1667 4.16667 16.6667V3.33334C4.16667 2.83334 4.5 2.5 5 2.5H10.8333V6.66667C10.8333 7.16667 11.1667 7.5 11.6667 7.5H15.8333V16.6667C15.8333 17.1667 15.5 17.5 15 17.5ZM12.5 13.3333C13 13.3333 13.3333 13 13.3333 12.5C13.3333 12 13 11.6667 12.5 11.6667H10.8333V10C10.8333 9.5 10.5 9.16667 10 9.16667C9.5 9.16667 9.16667 9.5 9.16667 10V11.6667H7.5C7 11.6667 6.66667 12 6.66667 12.5C6.66667 13 7 13.3333 7.5 13.3333H9.16667V15C9.16667 15.5 9.5 15.8333 10 15.8333C10.5 15.8333 10.8333 15.5 10.8333 15V13.3333H12.5Z" fill="black"/>
<mask id="mask0" mask-type="alpha" maskUnits="userSpaceOnUse" x="2" y="0" width="16" height="20">
<path fill-rule="evenodd" clip-rule="evenodd" d="M17.3333 6.20834C17.3542 6.25 17.375 6.29167 17.4167 6.33334C17.5 6.41667 17.5 6.58334 17.5 6.66667V16.6667C17.5 18.0833 16.4167 19.1667 15 19.1667H5C3.58333 19.1667 2.5 18.0833 2.5 16.6667V3.33334C2.5 1.91667 3.58333 0.833336 5 0.833336H11.6667C11.75 0.833336 11.9167 0.833336 12 0.916669C12.0833 0.916669 12.1667 1 12.25 1.08334L17.25 6.08334C17.2917 6.125 17.3125 6.16667 17.3333 6.20834ZM14.6667 5.83335L12.5 3.66669V5.83335H14.6667ZM15 17.5H5C4.5 17.5 4.16667 17.1667 4.16667 16.6667V3.33334C4.16667 2.83334 4.5 2.5 5 2.5H10.8333V6.66667C10.8333 7.16667 11.1667 7.5 11.6667 7.5H15.8333V16.6667C15.8333 17.1667 15.5 17.5 15 17.5ZM12.5 13.3333C13 13.3333 13.3333 13 13.3333 12.5C13.3333 12 13 11.6667 12.5 11.6667H10.8333V10C10.8333 9.5 10.5 9.16667 10 9.16667C9.5 9.16667 9.16667 9.5 9.16667 10V11.6667H7.5C7 11.6667 6.66667 12 6.66667 12.5C6.66667 13 7 13.3333 7.5 13.3333H9.16667V15C9.16667 15.5 9.5 15.8333 10 15.8333C10.5 15.8333 10.8333 15.5 10.8333 15V13.3333H12.5Z" fill="white"/>
</mask>
<g mask="url(#mask0)">
<rect width="20" height="20" fill="#B4B7BD"/>
</g>
</svg>
