<svg width="21" height="20" viewBox="0 0 21 20" fill="none" xmlns="http://www.w3.org/2000/svg">
<path fill-rule="evenodd" clip-rule="evenodd" d="M17.8333 6.20834C17.8542 6.25 17.875 6.29167 17.9167 6.33334C18 6.41667 18 6.58334 18 6.66667V16.6667C18 18.0833 16.9167 19.1667 15.5 19.1667H5.5C4.08333 19.1667 3 18.0833 3 16.6667V3.33334C3 1.91667 4.08333 0.833336 5.5 0.833336H12.1667C12.25 0.833336 12.4167 0.833336 12.5 0.916669C12.5833 0.916669 12.6667 1 12.75 1.08334L17.75 6.08334C17.7917 6.125 17.8125 6.16667 17.8333 6.20834ZM15.1667 5.83334L13 3.66667V5.83334H15.1667ZM15.5 17.5H5.5C5 17.5 4.66667 17.1667 4.66667 16.6667V3.33334C4.66667 2.83334 5 2.5 5.5 2.5H11.3333V6.66667C11.3333 7.16667 11.6667 7.5 12.1667 7.5H16.3333V16.6667C16.3333 17.1667 16 17.5 15.5 17.5ZM13.8333 11.6667C14.3333 11.6667 14.6667 11.3333 14.6667 10.8333C14.6667 10.3333 14.3333 10 13.8333 10H7.16667C6.66667 10 6.33333 10.3333 6.33333 10.8333C6.33333 11.3333 6.66667 11.6667 7.16667 11.6667H13.8333ZM14.6667 14.1667C14.6667 14.6667 14.3333 15 13.8333 15H7.16667C6.66667 15 6.33333 14.6667 6.33333 14.1667C6.33333 13.6667 6.66667 13.3333 7.16667 13.3333H13.8333C14.3333 13.3333 14.6667 13.6667 14.6667 14.1667ZM7.16667 6.66667C6.66667 6.66667 6.33333 7 6.33333 7.5C6.33333 8 6.66667 8.33334 7.16667 8.33334H8.83333C9.33333 8.33334 9.66667 8 9.66667 7.5C9.66667 7 9.33333 6.66667 8.83333 6.66667H7.16667Z" fill="black"/>
<mask id="mask0" mask-type="alpha" maskUnits="userSpaceOnUse" x="3" y="0" width="15" height="20">
<path fill-rule="evenodd" clip-rule="evenodd" d="M17.8333 6.20834C17.8542 6.25 17.875 6.29167 17.9167 6.33334C18 6.41667 18 6.58334 18 6.66667V16.6667C18 18.0833 16.9167 19.1667 15.5 19.1667H5.5C4.08333 19.1667 3 18.0833 3 16.6667V3.33334C3 1.91667 4.08333 0.833336 5.5 0.833336H12.1667C12.25 0.833336 12.4167 0.833336 12.5 0.916669C12.5833 0.916669 12.6667 1 12.75 1.08334L17.75 6.08334C17.7917 6.125 17.8125 6.16667 17.8333 6.20834ZM15.1667 5.83334L13 3.66667V5.83334H15.1667ZM15.5 17.5H5.5C5 17.5 4.66667 17.1667 4.66667 16.6667V3.33334C4.66667 2.83334 5 2.5 5.5 2.5H11.3333V6.66667C11.3333 7.16667 11.6667 7.5 12.1667 7.5H16.3333V16.6667C16.3333 17.1667 16 17.5 15.5 17.5ZM13.8333 11.6667C14.3333 11.6667 14.6667 11.3333 14.6667 10.8333C14.6667 10.3333 14.3333 10 13.8333 10H7.16667C6.66667 10 6.33333 10.3333 6.33333 10.8333C6.33333 11.3333 6.66667 11.6667 7.16667 11.6667H13.8333ZM14.6667 14.1667C14.6667 14.6667 14.3333 15 13.8333 15H7.16667C6.66667 15 6.33333 14.6667 6.33333 14.1667C6.33333 13.6667 6.66667 13.3333 7.16667 13.3333H13.8333C14.3333 13.3333 14.6667 13.6667 14.6667 14.1667ZM7.16667 6.66667C6.66667 6.66667 6.33333 7 6.33333 7.5C6.33333 8 6.66667 8.33334 7.16667 8.33334H8.83333C9.33333 8.33334 9.66667 8 9.66667 7.5C9.66667 7 9.33333 6.66667 8.83333 6.66667H7.16667Z" fill="white"/>
</mask>
<g mask="url(#mask0)">
<rect x="0.5" width="20" height="20" fill="#B4B7BD"/>
</g>
</svg>
