<svg width="18" height="18" viewBox="0 0 18 18" fill="none" xmlns="http://www.w3.org/2000/svg">
<path fill-rule="evenodd" clip-rule="evenodd" d="M17.25 2.17499C17.25 2.09999 17.25 2.02499 17.175 1.94999V1.87499C17.175 1.79999 17.1 1.72499 17.025 1.64999C16.9875 1.61249 16.95 1.59374 16.9125 1.57499C16.875 1.55624 16.8375 1.53749 16.8 1.49999H16.725C16.65 1.49999 16.575 1.49999 16.5 1.42499V1.49999C16.425 1.49999 16.35 1.49999 16.275 1.57499L1.275 6.82499C0.975 6.89999 0.75 7.12499 0.75 7.49999C0.75 7.79999 0.9 8.09999 1.2 8.24999L7.65 11.1L10.5 17.55C10.65 17.85 10.875 18 11.175 18C11.475 18 11.775 17.775 11.85 17.475L17.1 2.47499C17.25 2.39999 17.25 2.32499 17.25 2.17499ZM13.65 4.04999L8.1 9.59999L3.525 7.57499L13.65 4.04999ZM9.15 10.65L11.175 15.225L14.7 5.09998L9.15 10.65Z" fill="black"/>
<mask id="mask0" mask-type="alpha" maskUnits="userSpaceOnUse" x="0" y="1" width="18" height="17">
<path fill-rule="evenodd" clip-rule="evenodd" d="M17.25 2.17499C17.25 2.09999 17.25 2.02499 17.175 1.94999V1.87499C17.175 1.79999 17.1 1.72499 17.025 1.64999C16.9875 1.61249 16.95 1.59374 16.9125 1.57499C16.875 1.55624 16.8375 1.53749 16.8 1.49999H16.725C16.65 1.49999 16.575 1.49999 16.5 1.42499V1.49999C16.425 1.49999 16.35 1.49999 16.275 1.57499L1.275 6.82499C0.975 6.89999 0.75 7.12499 0.75 7.49999C0.75 7.79999 0.9 8.09999 1.2 8.24999L7.65 11.1L10.5 17.55C10.65 17.85 10.875 18 11.175 18C11.475 18 11.775 17.775 11.85 17.475L17.1 2.47499C17.25 2.39999 17.25 2.32499 17.25 2.17499ZM13.65 4.04999L8.1 9.59999L3.525 7.57499L13.65 4.04999ZM9.15 10.65L11.175 15.225L14.7 5.09998L9.15 10.65Z" fill="white"/>
</mask>
<g mask="url(#mask0)">
<rect width="18" height="18" fill="#B4B7BD"/>
</g>
</svg>
