<svg width="16" height="16" viewBox="0 0 16 16" fill="none" xmlns="http://www.w3.org/2000/svg">
<path d="M12.4667 6.46668L8.46666 10.4667C8.33333 10.6 8.2 10.6667 8 10.6667C7.79999 10.6667 7.66666 10.6 7.53333 10.4667L3.53333 6.46668C3.26666 6.20001 3.26666 5.80001 3.53333 5.53334C3.79999 5.26668 4.19999 5.26668 4.46666 5.53334L8 9.06668L11.5333 5.53334C11.8 5.26668 12.2 5.26668 12.4667 5.53334C12.7333 5.80001 12.7333 6.20001 12.4667 6.46668Z" fill="black"/>
<mask id="mask0" mask-type="alpha" maskUnits="userSpaceOnUse" x="3" y="5" width="10" height="6">
<path d="M12.4667 6.46668L8.46666 10.4667C8.33333 10.6 8.2 10.6667 8 10.6667C7.79999 10.6667 7.66666 10.6 7.53333 10.4667L3.53333 6.46668C3.26666 6.20001 3.26666 5.80001 3.53333 5.53334C3.79999 5.26668 4.19999 5.26668 4.46666 5.53334L8 9.06668L11.5333 5.53334C11.8 5.26668 12.2 5.26668 12.4667 5.53334C12.7333 5.80001 12.7333 6.20001 12.4667 6.46668Z" fill="white"/>
</mask>
<g mask="url(#mask0)">
<rect width="16" height="16" fill="#FF9F43"/>
</g>
</svg>
