<svg width="18" height="17" viewBox="0 0 18 17" fill="none" xmlns="http://www.w3.org/2000/svg">
<path fill-rule="evenodd" clip-rule="evenodd" d="M8.50607 0.708332C4.18524 0.708332 0.714405 4.17917 0.714405 8.5C0.714405 12.8208 4.18524 16.2917 8.50607 16.2917C12.8269 16.2917 16.2977 12.8208 16.2977 8.5C16.2977 4.17917 12.8269 0.708332 8.50607 0.708332ZM8.50607 14.875C4.96441 14.875 2.13107 12.0417 2.13107 8.5C2.13107 4.95833 4.96441 2.125 8.50607 2.125C12.0477 2.125 14.8811 4.95833 14.8811 8.5C14.8811 12.0417 12.0477 14.875 8.50607 14.875ZM11.3394 9.20833C11.7644 9.20833 12.0477 8.925 12.0477 8.5C12.0477 8.075 11.7644 7.79167 11.3394 7.79167H9.2144V5.66667C9.2144 5.24166 8.93107 4.95833 8.50607 4.95833C8.08107 4.95833 7.79774 5.24166 7.79774 5.66667V7.79167H5.67274C5.24774 7.79167 4.9644 8.075 4.9644 8.5C4.9644 8.925 5.24774 9.20833 5.67274 9.20833H7.79774V11.3333C7.79774 11.7583 8.08107 12.0417 8.50607 12.0417C8.93107 12.0417 9.2144 11.7583 9.2144 11.3333V9.20833H11.3394Z" fill="black"/>
<mask id="mask0" mask-type="alpha" maskUnits="userSpaceOnUse" x="0" y="0" width="17" height="17">
<path fill-rule="evenodd" clip-rule="evenodd" d="M8.50607 0.708332C4.18524 0.708332 0.714405 4.17917 0.714405 8.5C0.714405 12.8208 4.18524 16.2917 8.50607 16.2917C12.8269 16.2917 16.2977 12.8208 16.2977 8.5C16.2977 4.17917 12.8269 0.708332 8.50607 0.708332ZM8.50607 14.875C4.96441 14.875 2.13107 12.0417 2.13107 8.5C2.13107 4.95833 4.96441 2.125 8.50607 2.125C12.0477 2.125 14.8811 4.95833 14.8811 8.5C14.8811 12.0417 12.0477 14.875 8.50607 14.875ZM11.3394 9.20833C11.7644 9.20833 12.0477 8.925 12.0477 8.5C12.0477 8.075 11.7644 7.79167 11.3394 7.79167H9.2144V5.66667C9.2144 5.24166 8.93107 4.95833 8.50607 4.95833C8.08107 4.95833 7.79774 5.24166 7.79774 5.66667V7.79167H5.67274C5.24774 7.79167 4.9644 8.075 4.9644 8.5C4.9644 8.925 5.24774 9.20833 5.67274 9.20833H7.79774V11.3333C7.79774 11.7583 8.08107 12.0417 8.50607 12.0417C8.93107 12.0417 9.2144 11.7583 9.2144 11.3333V9.20833H11.3394Z" fill="white"/>
</mask>
<g mask="url(#mask0)">
<rect x="0.006073" width="17" height="17" fill="#7367F0"/>
</g>
</svg>
