<svg width="18" height="17" viewBox="0 0 18 17" fill="none" xmlns="http://www.w3.org/2000/svg">
<path fill-rule="evenodd" clip-rule="evenodd" d="M8.50607 0.708332C4.18523 0.708332 0.714401 4.17917 0.714401 8.5C0.714401 12.8208 4.18523 16.2917 8.50607 16.2917C12.8269 16.2917 16.2977 12.8208 16.2977 8.5C16.2977 4.17917 12.8269 0.708332 8.50607 0.708332ZM8.50607 14.875C4.9644 14.875 2.13107 12.0417 2.13107 8.5C2.13107 4.95833 4.9644 2.125 8.50607 2.125C12.0477 2.125 14.8811 4.95833 14.8811 8.5C14.8811 12.0417 12.0477 14.875 8.50607 14.875ZM12.0033 8.30972C11.9891 8.27535 11.9769 8.24601 11.9769 8.21666C11.9769 8.14583 11.9061 8.075 11.8352 8.00417L9.0019 5.17083C8.71857 4.8875 8.29357 4.8875 8.01023 5.17083C7.7269 5.45416 7.7269 5.87916 8.01023 6.1625L9.6394 7.79167H5.67273C5.24773 7.79167 4.9644 8.075 4.9644 8.5C4.9644 8.925 5.24773 9.20833 5.67273 9.20833H9.6394L8.01023 10.8375C7.7269 11.1208 7.7269 11.5458 8.01023 11.8292C8.1519 11.9708 8.29357 12.0417 8.50607 12.0417C8.71857 12.0417 8.86023 11.9708 9.0019 11.8292L11.8352 8.99583C11.9061 8.925 11.9769 8.85417 11.9769 8.78333C12.0477 8.7125 12.0477 8.57083 12.0477 8.5C12.0477 8.41701 12.0234 8.35833 12.0033 8.30972Z" fill="black"/>
<mask id="mask0" mask-type="alpha" maskUnits="userSpaceOnUse" x="0" y="0" width="17" height="17">
<path fill-rule="evenodd" clip-rule="evenodd" d="M8.50607 0.708332C4.18523 0.708332 0.714401 4.17917 0.714401 8.5C0.714401 12.8208 4.18523 16.2917 8.50607 16.2917C12.8269 16.2917 16.2977 12.8208 16.2977 8.5C16.2977 4.17917 12.8269 0.708332 8.50607 0.708332ZM8.50607 14.875C4.9644 14.875 2.13107 12.0417 2.13107 8.5C2.13107 4.95833 4.9644 2.125 8.50607 2.125C12.0477 2.125 14.8811 4.95833 14.8811 8.5C14.8811 12.0417 12.0477 14.875 8.50607 14.875ZM12.0033 8.30972C11.9891 8.27535 11.9769 8.24601 11.9769 8.21666C11.9769 8.14583 11.9061 8.075 11.8352 8.00417L9.0019 5.17083C8.71857 4.8875 8.29357 4.8875 8.01023 5.17083C7.7269 5.45416 7.7269 5.87916 8.01023 6.1625L9.6394 7.79167H5.67273C5.24773 7.79167 4.9644 8.075 4.9644 8.5C4.9644 8.925 5.24773 9.20833 5.67273 9.20833H9.6394L8.01023 10.8375C7.7269 11.1208 7.7269 11.5458 8.01023 11.8292C8.1519 11.9708 8.29357 12.0417 8.50607 12.0417C8.71857 12.0417 8.86023 11.9708 9.0019 11.8292L11.8352 8.99583C11.9061 8.925 11.9769 8.85417 11.9769 8.78333C12.0477 8.7125 12.0477 8.57083 12.0477 8.5C12.0477 8.41701 12.0234 8.35833 12.0033 8.30972Z" fill="white"/>
</mask>
<g mask="url(#mask0)">
<rect x="0.006073" width="17" height="17" fill="#7367F0"/>
</g>
</svg>
