<svg width="20" height="20" viewBox="0 0 20 20" fill="none" xmlns="http://www.w3.org/2000/svg">
<path fill-rule="evenodd" clip-rule="evenodd" d="M17.5 2.5H2.5C1.08333 2.5 0 3.58333 0 5V15C0 16.4167 1.08333 17.5 2.5 17.5H17.5C18.9167 17.5 20 16.4167 20 15V5C20 3.58333 18.9167 2.5 17.5 2.5ZM2.5 4.16667H17.5C18 4.16667 18.3333 4.5 18.3333 5V7.5H1.66667V5C1.66667 4.5 2 4.16667 2.5 4.16667ZM2.5 15.8333H17.5C18 15.8333 18.3333 15.5 18.3333 15V9.16667H1.66667V15C1.66667 15.5 2 15.8333 2.5 15.8333Z" fill="black"/>
<mask id="mask0" mask-type="alpha" maskUnits="userSpaceOnUse" x="0" y="2" width="20" height="16">
<path fill-rule="evenodd" clip-rule="evenodd" d="M17.5 2.5H2.5C1.08333 2.5 0 3.58333 0 5V15C0 16.4167 1.08333 17.5 2.5 17.5H17.5C18.9167 17.5 20 16.4167 20 15V5C20 3.58333 18.9167 2.5 17.5 2.5ZM2.5 4.16667H17.5C18 4.16667 18.3333 4.5 18.3333 5V7.5H1.66667V5C1.66667 4.5 2 4.16667 2.5 4.16667ZM2.5 15.8333H17.5C18 15.8333 18.3333 15.5 18.3333 15V9.16667H1.66667V15C1.66667 15.5 2 15.8333 2.5 15.8333Z" fill="white"/>
</mask>
<g mask="url(#mask0)">
<rect width="20" height="20" fill="#B4B7BD"/>
</g>
</svg>
