<svg width="17" height="17" viewBox="0 0 17 17" fill="none" xmlns="http://www.w3.org/2000/svg">
<path fill-rule="evenodd" clip-rule="evenodd" d="M13.4583 2.12498H12.0417V1.41665C12.0417 0.991646 11.7583 0.708313 11.3333 0.708313C10.9083 0.708313 10.625 0.991646 10.625 1.41665V2.12498H6.37499V1.41665C6.37499 0.991646 6.09166 0.708313 5.66666 0.708313C5.24166 0.708313 4.95832 0.991646 4.95832 1.41665V2.12498H3.54166C2.33749 2.12498 1.41666 3.04581 1.41666 4.24998V14.1666C1.41666 15.3708 2.33749 16.2916 3.54166 16.2916H13.4583C14.6625 16.2916 15.5833 15.3708 15.5833 14.1666V4.24998C15.5833 3.04581 14.6625 2.12498 13.4583 2.12498ZM3.54166 3.54165H4.95832V4.24998C4.95832 4.67498 5.24166 4.95831 5.66666 4.95831C6.09166 4.95831 6.37499 4.67498 6.37499 4.24998V3.54165H10.625V4.24998C10.625 4.67498 10.9083 4.95831 11.3333 4.95831C11.7583 4.95831 12.0417 4.67498 12.0417 4.24998V3.54165H13.4583C13.8833 3.54165 14.1667 3.82498 14.1667 4.24998V6.37498H2.83332V4.24998C2.83332 3.82498 3.11666 3.54165 3.54166 3.54165ZM3.54166 14.875H13.4583C13.8833 14.875 14.1667 14.5916 14.1667 14.1666V7.79165H2.83332V14.1666C2.83332 14.5916 3.11666 14.875 3.54166 14.875Z" fill="black"/>
<mask id="mask0" mask-type="alpha" maskUnits="userSpaceOnUse" x="1" y="0" width="15" height="17">
<path fill-rule="evenodd" clip-rule="evenodd" d="M13.4583 2.12498H12.0417V1.41665C12.0417 0.991646 11.7583 0.708313 11.3333 0.708313C10.9083 0.708313 10.625 0.991646 10.625 1.41665V2.12498H6.37499V1.41665C6.37499 0.991646 6.09166 0.708313 5.66666 0.708313C5.24166 0.708313 4.95832 0.991646 4.95832 1.41665V2.12498H3.54166C2.33749 2.12498 1.41666 3.04581 1.41666 4.24998V14.1666C1.41666 15.3708 2.33749 16.2916 3.54166 16.2916H13.4583C14.6625 16.2916 15.5833 15.3708 15.5833 14.1666V4.24998C15.5833 3.04581 14.6625 2.12498 13.4583 2.12498ZM3.54166 3.54165H4.95832V4.24998C4.95832 4.67498 5.24166 4.95831 5.66666 4.95831C6.09166 4.95831 6.37499 4.67498 6.37499 4.24998V3.54165H10.625V4.24998C10.625 4.67498 10.9083 4.95831 11.3333 4.95831C11.7583 4.95831 12.0417 4.67498 12.0417 4.24998V3.54165H13.4583C13.8833 3.54165 14.1667 3.82498 14.1667 4.24998V6.37498H2.83332V4.24998C2.83332 3.82498 3.11666 3.54165 3.54166 3.54165ZM3.54166 14.875H13.4583C13.8833 14.875 14.1667 14.5916 14.1667 14.1666V7.79165H2.83332V14.1666C2.83332 14.5916 3.11666 14.875 3.54166 14.875Z" fill="white"/>
</mask>
<g mask="url(#mask0)">
<rect width="17" height="17" fill="#7367F0"/>
</g>
</svg>
