<svg width="34" height="28" viewBox="0 0 34 28" fill="none" xmlns="http://www.w3.org/2000/svg">
<path fill-rule="evenodd" clip-rule="evenodd" d="M21.3325 22.6063H20.5461V23.6056C20.5461 23.8276 20.6247 23.9757 20.8653 23.9757C21.0154 23.9707 21.1619 23.9277 21.2909 23.8508L21.4297 24.2625C21.2493 24.375 21.0408 24.4343 20.8283 24.4337C20.2593 24.4337 20.0603 24.1284 20.0603 23.6148V22.6063H19.6116V22.1668H20.0603L20.0602 21.496H20.5459L20.5461 22.1668H21.3325V22.6063ZM25.146 22.1976C24.9951 22.1373 24.8339 22.1071 24.6714 22.1087C24.509 22.1071 24.3478 22.1373 24.1969 22.1976C24.0565 22.2536 23.9286 22.3368 23.8205 22.4424C23.7142 22.5475 23.6299 22.6727 23.5723 22.8107C23.4523 23.1068 23.4523 23.4381 23.5723 23.7343C23.6298 23.8723 23.7142 23.9975 23.8205 24.1026C23.9286 24.2082 24.0565 24.2914 24.1969 24.3473C24.5021 24.4659 24.8407 24.4659 25.146 24.3473C25.2866 24.2912 25.4149 24.2081 25.5235 24.1026C25.6304 23.9978 25.7152 23.8725 25.7729 23.7343C25.893 23.4381 25.893 23.1068 25.7729 22.8107C25.7152 22.6725 25.6304 22.5472 25.5235 22.4424C25.4149 22.3369 25.2866 22.2537 25.146 22.1976ZM11.6655 22.9903V24.3781H11.1797V23.1476C11.1797 22.7729 11.0224 22.5647 10.694 22.5647C10.5401 22.5576 10.3909 22.619 10.2864 22.7323C10.182 22.8456 10.1331 22.9994 10.1527 23.1522V24.3781H9.66699V23.1476C9.66699 22.7729 9.50504 22.5647 9.18584 22.5647C9.03144 22.556 8.88126 22.6169 8.77647 22.7306C8.67169 22.8444 8.6233 22.999 8.64457 23.1522V24.3781H8.15881V22.1668H8.63996V22.4398C8.7824 22.2232 9.02878 22.0983 9.28762 22.1113C9.58491 22.0986 9.86535 22.2494 10.0186 22.5045C10.1867 22.2417 10.4844 22.091 10.7958 22.1113C11.0321 22.0973 11.263 22.1858 11.4295 22.354C11.596 22.5223 11.6819 22.7541 11.6655 22.9903ZM14.3765 22.1668V23.2725V24.3781H13.8953V24.1098C13.7287 24.3246 13.4683 24.4453 13.1968 24.4337C12.5776 24.4033 12.0911 23.8924 12.0911 23.2725C12.0911 22.6525 12.5776 22.1417 13.1968 22.1113C13.4683 22.0997 13.7287 22.2204 13.8953 22.4351V22.1668H14.3765ZM12.5861 23.2725C12.607 22.9085 12.9151 22.6281 13.2794 22.6416C13.6436 22.6551 13.9302 22.9575 13.9241 23.3219C13.918 23.6864 13.6214 23.979 13.2569 23.9803C13.0717 23.9828 12.8939 23.9077 12.7665 23.7733C12.6391 23.6388 12.5737 23.4573 12.5861 23.2725ZM24.6714 22.5636C24.5773 22.5628 24.484 22.5804 24.3967 22.6156C24.3144 22.6486 24.2398 22.6981 24.1773 22.761C24.1145 22.8253 24.065 22.9014 24.0318 22.985C23.961 23.1701 23.961 23.3749 24.0318 23.56C24.065 23.6436 24.1144 23.7197 24.1773 23.784C24.2398 23.8469 24.3144 23.8964 24.3967 23.9294C24.5733 23.9987 24.7696 23.9987 24.9462 23.9294C25.0287 23.8962 25.1037 23.8468 25.1667 23.784C25.2302 23.7199 25.28 23.6438 25.3134 23.56C25.3842 23.3749 25.3842 23.1701 25.3134 22.985C25.28 22.9013 25.2302 22.8251 25.1667 22.761C25.1037 22.6982 25.0287 22.6488 24.9462 22.6156C24.8589 22.5804 24.7655 22.5628 24.6714 22.5636ZM15.9443 22.1113C16.5643 22.1113 16.9899 22.5832 16.9945 23.2725C16.9945 23.3373 16.9899 23.3974 16.9852 23.4575H15.3429C15.3811 23.787 15.674 24.0266 16.0045 23.9988C16.2386 23.9953 16.4648 23.9139 16.6475 23.7675L16.8835 24.1237C16.6296 24.3349 16.3068 24.4453 15.9767 24.4337C15.3525 24.4184 14.8519 23.9124 14.8432 23.2881C14.8345 22.6637 15.3208 22.144 15.9443 22.1113ZM15.3476 23.0782C15.3651 22.7694 15.626 22.5311 15.9351 22.5415C16.2377 22.5357 16.488 22.7756 16.4949 23.0782H15.3476ZM18.3314 22.5415C18.5735 22.5452 18.8108 22.6105 19.0207 22.7312L19.2289 22.3426C18.9565 22.1807 18.6434 22.1004 18.3268 22.1113C17.767 22.1113 17.4061 22.3796 17.4061 22.8191C17.4061 23.18 17.6745 23.402 18.1694 23.4714L18.3962 23.5038C18.6598 23.5408 18.7847 23.6102 18.7847 23.7351C18.7847 23.9063 18.6089 24.0034 18.2805 24.0034C18.0163 24.011 17.7572 23.9295 17.5449 23.7721L17.3182 24.1468C17.5985 24.3426 17.9342 24.4431 18.2759 24.4337C18.9143 24.4337 19.2844 24.1329 19.2844 23.712C19.2844 23.3233 18.9929 23.1198 18.5118 23.0504L18.2851 23.018C18.0769 22.9903 17.9104 22.9487 17.9104 22.8006C17.9104 22.6387 18.0677 22.5415 18.3314 22.5415ZM23.34 22.1715C23.2301 22.1321 23.1143 22.1118 22.9976 22.1113C22.7586 22.1042 22.535 22.2285 22.4147 22.4351V22.1668H21.9382V24.3781H22.4193V23.1383C22.4193 22.7729 22.5766 22.5693 22.8912 22.5693C22.9941 22.5679 23.0963 22.5867 23.1919 22.6248L23.34 22.1715ZM26.3285 24.0562C26.3584 24.056 26.388 24.0619 26.4156 24.0735C26.4421 24.0846 26.4663 24.1006 26.4868 24.1207C26.5072 24.1408 26.5235 24.1646 26.5348 24.1909C26.5582 24.2454 26.5582 24.3071 26.5348 24.3616C26.5234 24.3877 26.5071 24.4114 26.4868 24.4314C26.4662 24.4515 26.4421 24.4676 26.4156 24.4789C26.3881 24.4907 26.3584 24.4966 26.3285 24.4964C26.2384 24.4973 26.1565 24.4442 26.1205 24.3616C26.0972 24.3071 26.0972 24.2454 26.1205 24.1909C26.1318 24.1646 26.148 24.1408 26.1683 24.1207C26.1888 24.1005 26.2131 24.0844 26.2398 24.0735C26.2679 24.0619 26.298 24.056 26.3285 24.0562ZM26.3948 24.4344C26.3739 24.4435 26.3513 24.448 26.3285 24.4479C26.2826 24.4481 26.2386 24.43 26.206 24.3977C26.1394 24.3305 26.1394 24.2222 26.206 24.1549C26.2217 24.1394 26.2403 24.127 26.2608 24.1186C26.2822 24.1097 26.3052 24.1052 26.3285 24.1053C26.3513 24.1051 26.3739 24.1096 26.3948 24.1186C26.4473 24.1409 26.4852 24.1878 26.496 24.2438C26.5068 24.2998 26.4891 24.3575 26.4488 24.3977C26.4332 24.4132 26.415 24.4257 26.3948 24.4344ZM26.3414 24.1733C26.3631 24.1719 26.3846 24.1781 26.4021 24.1909C26.4163 24.2025 26.4242 24.2202 26.4234 24.2386C26.4239 24.2543 26.4177 24.2694 26.4064 24.2803C26.393 24.2923 26.376 24.2994 26.3581 24.3006L26.425 24.3777H26.3727L26.3107 24.3011H26.2907V24.3777H26.247V24.1733H26.3414ZM26.2907 24.2661V24.2116H26.3409C26.3505 24.2111 26.3601 24.2135 26.3684 24.2183C26.3752 24.2228 26.3791 24.2305 26.3786 24.2386C26.3792 24.2468 26.3753 24.2547 26.3684 24.2593C26.3601 24.2642 26.3505 24.2666 26.3409 24.2661H26.2907Z" fill="white"/>
<rect x="13.3516" y="5.28946" width="7.29683" height="13.1126" fill="#7375CF"/>
<path d="M13.8149 11.8458C13.8125 9.28698 14.9871 6.86926 17 5.28947C13.5809 2.60201 8.67065 2.99316 5.72018 6.18801C2.76971 9.38286 2.76971 14.3087 5.72018 17.5035C8.67065 20.6984 13.5809 21.0895 17 18.4021C14.9871 16.8223 13.8126 14.4046 13.8149 11.8458Z" fill="#EB001B"/>
<path d="M30.4922 11.8458C30.4924 15.0385 28.6695 17.951 25.7979 19.3464C22.9263 20.7418 19.5101 20.3751 17 18.4021C19.011 16.8208 20.1851 14.404 20.1851 11.8458C20.1851 9.28752 19.011 6.87077 17 5.28947C19.5101 3.31644 22.9263 2.94977 25.7979 4.34517C28.6695 5.74058 30.4924 8.65309 30.4922 11.8458Z" fill="#00A2E5"/>
</svg>
