<svg width="34" height="26" viewBox="0 0 34 26" fill="none" xmlns="http://www.w3.org/2000/svg">
<path fill-rule="evenodd" clip-rule="evenodd" d="M29.6988 21.8314V19.9293H29.2168V21.0326C29.0498 20.8278 28.789 20.7126 28.5169 20.7237C27.8966 20.7526 27.4092 21.24 27.4092 21.8315C27.4092 22.423 27.8966 22.9104 28.5169 22.9393C28.789 22.9504 29.0498 22.8352 29.2168 22.6303V22.8863H29.6988V21.8314ZM15.3261 20.7766H16.114V21.1959H15.3261V22.1493C15.3261 22.3611 15.4049 22.5023 15.6459 22.5023C15.7963 22.4976 15.9431 22.4566 16.0723 22.3832L16.2113 22.776C16.0306 22.8833 15.8218 22.9399 15.6088 22.9393C15.0387 22.9393 14.8394 22.648 14.8394 22.1581V21.1959H14.3898V20.7766H14.8394V20.1367H15.3261V20.7766ZM8.91142 21.5622V22.8863H8.42476V21.7123C8.42476 21.3548 8.26718 21.1562 7.93813 21.1562C7.78389 21.1494 7.63441 21.208 7.5298 21.3161C7.42518 21.4242 7.37614 21.5709 7.39584 21.7167V22.8863H6.90918V21.7123C6.90918 21.3548 6.74694 21.1562 6.42714 21.1562C6.27244 21.1479 6.12198 21.206 6.01701 21.3145C5.91203 21.423 5.86354 21.5706 5.88485 21.7167V22.8863H5.39819V20.7766H5.88024V21.037C6.02294 20.8305 6.26979 20.7113 6.52912 20.7237C6.82695 20.7116 7.10791 20.8555 7.26143 21.0988C7.42984 20.848 7.72815 20.7043 8.04008 20.7237C8.27683 20.7103 8.50815 20.7947 8.67496 20.9553C8.84177 21.1158 8.92792 21.3369 8.91142 21.5622ZM20.2252 20.7237C19.9857 20.717 19.7617 20.8355 19.6412 21.0326V20.7766H19.1638V22.8863H19.6458V21.7035C19.6458 21.3548 19.8034 21.1606 20.1186 21.1606C20.2217 21.1593 20.324 21.1773 20.4198 21.2136L20.5681 20.781C20.4581 20.7435 20.3421 20.7241 20.2252 20.7237ZM13.106 20.7237C13.4232 20.7133 13.737 20.7899 14.0098 20.9443L13.8012 21.3151C13.5909 21.1999 13.3532 21.1376 13.1106 21.1341C12.8464 21.1341 12.6889 21.2268 12.6889 21.3813C12.6889 21.5226 12.8557 21.5622 13.0643 21.5887L13.2914 21.6196C13.7734 21.6858 14.0654 21.88 14.0654 22.2508C14.0654 22.6524 13.6946 22.9393 13.055 22.9393C12.7127 22.9483 12.3764 22.8524 12.0956 22.6656L12.3227 22.3081C12.5354 22.4583 12.7949 22.5361 13.0596 22.5288C13.3887 22.5288 13.5648 22.4361 13.5648 22.2728C13.5648 22.1537 13.4397 22.0874 13.1755 22.0521L12.9484 22.0213C12.4525 21.9551 12.1837 21.7432 12.1837 21.3989C12.1837 20.9797 12.5452 20.7237 13.106 20.7237ZM26.9225 20.7237C26.6831 20.717 26.459 20.8355 26.3385 21.0326V20.7766H25.8612V22.8863H26.3432V21.7035C26.3432 21.3548 26.5008 21.1606 26.8159 21.1606C26.919 21.1593 27.0214 21.1773 27.1172 21.2136L27.2655 20.781C27.1554 20.7435 27.0395 20.7241 26.9225 20.7237ZM21.045 22.6348C20.8199 22.4237 20.6988 22.132 20.7118 21.8314C20.6989 21.5309 20.8199 21.2392 21.045 21.0282C21.2701 20.8172 21.5784 20.7066 21.8937 20.7237C22.1831 20.7098 22.4675 20.7996 22.6909 20.9752L22.4592 21.346C22.2925 21.225 22.0893 21.1585 21.8798 21.1562C21.5048 21.1779 21.2124 21.4738 21.2124 21.8315C21.2124 22.1892 21.5048 22.4851 21.8798 22.5067C22.0893 22.5045 22.2925 22.4379 22.4592 22.317L22.6909 22.6877C22.4675 22.8634 22.1831 22.9531 21.8937 22.9393C21.5784 22.9564 21.2701 22.8458 21.045 22.6348ZM25.2262 21.8314V20.7766H24.7441V21.0326C24.5772 20.8278 24.3164 20.7126 24.0443 20.7237C23.4239 20.7526 22.9366 21.24 22.9366 21.8315C22.9366 22.4229 23.4239 22.9103 24.0443 22.9393C24.3164 22.9504 24.5772 22.8352 24.7441 22.6303V22.8863H25.2262V21.8314ZM24.127 21.2296C23.762 21.2167 23.4533 21.4842 23.4325 21.8314C23.42 22.0078 23.4855 22.181 23.6132 22.3093C23.7408 22.4375 23.919 22.5091 24.1046 22.5067C24.4698 22.5055 24.7669 22.2263 24.773 21.8786C24.7791 21.5309 24.4919 21.2424 24.127 21.2296ZM17.6157 20.7237C16.9911 20.755 16.504 21.2507 16.5127 21.8464C16.5214 22.442 17.0228 22.9246 17.6482 22.9393C17.9789 22.9504 18.3022 22.8451 18.5566 22.6436L18.3202 22.3037C18.1372 22.4434 17.9105 22.5211 17.676 22.5244C17.3449 22.5509 17.0514 22.3223 17.0132 22.008H18.6586C18.6632 21.9506 18.6678 21.8933 18.6678 21.8314C18.6632 21.1739 18.2368 20.7237 17.6157 20.7237ZM18.1673 21.6461C18.1604 21.3575 17.9096 21.1285 17.6064 21.1341C17.2968 21.1242 17.0354 21.3515 17.0178 21.6461H18.1673ZM30.5895 22.5971C30.5619 22.586 30.5323 22.5804 30.5023 22.5806C30.4719 22.5804 30.4417 22.586 30.4136 22.5971C30.3869 22.6074 30.3626 22.6227 30.3421 22.642C30.3218 22.6612 30.3056 22.6838 30.2943 22.7088C30.2709 22.7608 30.2709 22.8196 30.2943 22.8715C30.3302 22.9502 30.4122 23.0008 30.5023 23C30.5323 23.0002 30.562 22.9945 30.5895 22.9832C30.616 22.9725 30.6402 22.9572 30.6608 22.938C30.6811 22.919 30.6974 22.8964 30.7088 22.8715C30.7322 22.8196 30.7322 22.7608 30.7088 22.7088C30.6975 22.6838 30.6812 22.6611 30.6608 22.642C30.6403 22.6229 30.6161 22.6076 30.5895 22.5971ZM30.5023 22.9537C30.5252 22.9539 30.5478 22.9495 30.5688 22.9409C30.5889 22.9325 30.6072 22.9207 30.6227 22.9059C30.6893 22.8419 30.6893 22.7387 30.6227 22.6746C30.6072 22.6599 30.5889 22.6481 30.5688 22.64C30.5478 22.6315 30.5252 22.6272 30.5023 22.6274C30.4791 22.6272 30.4561 22.6315 30.4346 22.64C30.4142 22.648 30.3956 22.6598 30.3799 22.6746C30.3132 22.7387 30.3132 22.8419 30.3799 22.9059C30.3956 22.9208 30.4142 22.9327 30.4346 22.9409C30.456 22.9495 30.4791 22.9539 30.5023 22.9537ZM30.576 22.7088C30.5585 22.6967 30.537 22.6907 30.5153 22.6921H30.4209V22.8869H30.4646V22.8139H30.4846L30.5466 22.8869H30.599L30.532 22.8134C30.5499 22.8122 30.5669 22.8055 30.5804 22.7941C30.5917 22.7837 30.5978 22.7693 30.5973 22.7543C30.5981 22.7368 30.5903 22.72 30.576 22.7088ZM30.4646 22.7286V22.7805H30.5148C30.5244 22.781 30.534 22.7787 30.5423 22.7741C30.5492 22.7697 30.5531 22.7622 30.5525 22.7543C30.553 22.7466 30.5491 22.7392 30.5423 22.735C30.534 22.7304 30.5244 22.7282 30.5148 22.7286H30.4646ZM28.5997 21.2296C28.2347 21.2168 27.926 21.4843 27.9051 21.8314C27.8927 22.0077 27.9582 22.181 28.0858 22.3093C28.2135 22.4375 28.3916 22.5091 28.5772 22.5067C28.9424 22.5055 29.2395 22.2264 29.2456 21.8787C29.2517 21.531 28.9646 21.2425 28.5997 21.2296ZM11.6275 21.8314V20.7766H11.1454V21.0326C10.9785 20.8278 10.7176 20.7126 10.4456 20.7237C9.8252 20.7526 9.33785 21.24 9.33785 21.8315C9.33785 22.4229 9.8252 22.9103 10.4456 22.9393C10.7176 22.9504 10.9785 22.8352 11.1454 22.6303V22.8863H11.6275V21.8314ZM10.5283 21.2296C10.1634 21.2168 9.85467 21.4843 9.83379 21.8314C9.82133 22.0077 9.88684 22.181 10.0145 22.3093C10.1421 22.4375 10.3203 22.5091 10.5058 22.5067C10.871 22.5055 11.1681 22.2264 11.1742 21.8787C11.1803 21.531 10.8933 21.2425 10.5283 21.2296Z" fill="white"/>
<rect x="13.8497" y="4.69888" width="7.30092" height="12.4935" fill="#FF5F00"/>
<path d="M14.3133 10.9456C14.311 8.50765 15.4862 6.20407 17.5002 4.69887C14.0792 2.1383 9.16622 2.51098 6.21409 5.55499C3.26197 8.599 3.26197 13.2923 6.21409 16.3363C9.16622 19.3803 14.0792 19.753 17.5002 17.1924C15.4862 15.6872 14.311 13.3836 14.3133 10.9456Z" fill="#EB001B"/>
<path d="M31 10.9456C31.0002 13.9876 29.1763 16.7626 26.3031 18.0921C23.4299 19.4216 20.0117 19.0723 17.5002 17.1924C19.5124 15.6858 20.6871 13.3831 20.6871 10.9456C20.6871 8.50816 19.5124 6.20552 17.5002 4.69888C20.0117 2.81901 23.4299 2.46965 26.3031 3.79917C29.1763 5.12869 31.0002 7.90369 31 10.9456Z" fill="#F79E1B"/>
</svg>
