<svg width="13" height="13" viewBox="0 0 13 13" fill="none" xmlns="http://www.w3.org/2000/svg">
<path d="M11.2125 4.17083L5.25417 10.1292C5.14583 10.2375 5.0375 10.2917 4.875 10.2917C4.7125 10.2917 4.60417 10.2375 4.49583 10.1292L1.7875 7.42083C1.57083 7.20417 1.57083 6.87917 1.7875 6.6625C2.00417 6.44583 2.32917 6.44583 2.54583 6.6625L4.875 8.99167L10.4542 3.4125C10.6708 3.19583 10.9958 3.19583 11.2125 3.4125C11.4292 3.62917 11.4292 3.95417 11.2125 4.17083Z" fill="black"/>
<mask id="mask0" mask-type="alpha" maskUnits="userSpaceOnUse" x="1" y="3" width="11" height="8">
<path d="M11.2125 4.17083L5.25417 10.1292C5.14583 10.2375 5.0375 10.2917 4.875 10.2917C4.7125 10.2917 4.60417 10.2375 4.49583 10.1292L1.7875 7.42083C1.57083 7.20417 1.57083 6.87917 1.7875 6.6625C2.00417 6.44583 2.32917 6.44583 2.54583 6.6625L4.875 8.99167L10.4542 3.4125C10.6708 3.19583 10.9958 3.19583 11.2125 3.4125C11.4292 3.62917 11.4292 3.95417 11.2125 4.17083Z" fill="white"/>
</mask>
<g mask="url(#mask0)">
<rect width="13" height="13" fill="white"/>
<rect width="13" height="13" fill="white"/>
</g>
</svg>
