<svg width="33" height="44" viewBox="0 0 33 44" fill="none" xmlns="http://www.w3.org/2000/svg">
<path d="M27.369 21.6122C29.387 19.9652 30.5475 17.5038 30.5275 14.913V13.3478C30.5188 8.59695 26.6351 4.74775 21.8416 4.73913H21.052V1.6087C21.052 0.744252 20.345 0.0434799 19.4728 0.0434799C18.6006 0.0434799 17.8935 0.744252 17.8935 1.6087V4.73913H13.1558V1.6087C13.1558 0.744252 12.4487 0.0434799 11.5765 0.0434799C10.7043 0.0434799 9.99725 0.744252 9.99725 1.6087V4.73913H2.10099C1.22879 4.73913 0.521736 5.4399 0.521736 6.30435C0.521736 7.1688 1.22879 7.86957 2.10099 7.86957H5.25949V31.3478C5.25949 32.2123 5.96655 32.913 6.83874 32.913C7.71094 32.913 8.418 32.2123 8.418 31.3478V7.86957H21.8416C24.8943 7.86957 27.369 10.3223 27.369 13.3478V14.913C27.369 17.9386 24.8943 20.3913 21.8416 20.3913H13.1558C12.2836 20.3913 11.5765 21.0921 11.5765 21.9565C11.5765 22.821 12.2836 23.5217 13.1558 23.5217H22.6313C26.1201 23.5217 28.9483 26.3248 28.9483 29.7826C28.9483 33.2404 26.1201 36.0435 22.6313 36.0435H2.10099C1.22879 36.0435 0.521736 36.7443 0.521736 37.6087C0.521736 38.4731 1.22879 39.1739 2.10099 39.1739H9.99725V42.3043C9.99725 43.1688 10.7043 43.8696 11.5765 43.8696C12.4487 43.8696 13.1558 43.1688 13.1558 42.3043V39.1739H17.8935V42.3043C17.8935 43.1688 18.6006 43.8696 19.4728 43.8696C20.345 43.8696 21.052 43.1688 21.052 42.3043V39.1739H22.6313C26.9463 39.2038 30.7368 36.3404 31.8515 32.2087C32.9661 28.077 31.1233 23.7207 27.369 21.6122Z" fill="#01CFE8"/>
</svg>
