<svg width="29" height="36" viewBox="0 0 29 36" fill="none" xmlns="http://www.w3.org/2000/svg">
<path d="M13.7699 2.23212e-05C12.7567 -0.00455089 11.8299 0.693975 11.5611 1.75139L7.97799 15.8424L1.48508 18.3224C0.306969 18.7722 -0.294023 20.1217 0.142214 21.336C0.482052 22.2823 1.35091 22.8671 2.27537 22.8671C2.53746 22.8671 2.8045 22.82 3.06482 22.7206L6.56933 21.3827L4.57211 29.2383C4.15764 30.868 4.49248 32.5675 5.49067 33.9013C6.48886 35.2352 7.99848 36 9.63237 36H26.7256C27.9819 36 29 34.9502 29 33.6548C29 32.3594 27.9819 31.3096 26.7256 31.3096H9.63237C9.34051 31.3096 9.16853 31.1378 9.09213 31.0357C9.01572 30.9335 8.89844 30.7186 8.97218 30.4278L11.778 19.3932L18.4175 16.8576C19.5956 16.4078 20.1966 15.0583 19.7604 13.844C19.3241 12.6293 18.0159 12.0089 16.8378 12.4592L13.1867 13.8536L15.9614 2.94039C16.2799 1.68761 15.5531 0.405582 14.3381 0.0771469C14.1482 0.0259023 13.9575 0.000869245 13.7699 2.23212e-05Z" fill="#6DD400"/>
</svg>
