<svg width="28" height="29" viewBox="0 0 28 29" fill="none" xmlns="http://www.w3.org/2000/svg">
<path fill-rule="evenodd" clip-rule="evenodd" d="M19.3763 25.3797C21.8434 25.3797 24.5203 26.2256 27.483 28.8508C27.7798 29.1137 28.1749 28.787 27.916 28.4603C25.0044 24.784 22.3113 24.0842 19.6256 23.4922C16.3406 22.7684 14.6508 20.92 13.4731 18.8904C13.2388 18.4866 13.1337 18.5579 13.1127 19.0769C13.0869 19.7116 13.1307 20.5516 13.2726 21.3781C13.1402 21.3842 13.0069 21.3826 12.873 21.3826C8.17313 21.3826 4.36318 17.5728 4.36318 12.873C4.36318 8.17313 8.17313 4.36318 12.873 4.36318C17.5726 4.36318 21.3826 8.17313 21.3826 12.873C21.3826 13.2074 21.3663 13.5378 21.3287 13.8622C20.707 13.7501 19.4842 13.7374 18.6261 13.8117C18.3033 13.8395 18.3488 13.9899 18.5928 14.034C21.4057 14.5424 23.3385 16.2857 23.7803 19.4492C23.7904 19.5218 23.8855 19.5437 23.9233 19.4808C25.0808 17.5492 25.7457 15.2886 25.7457 12.873C25.7457 5.76346 19.9825 0 12.873 0C5.76346 0 0 5.76346 0 12.873C0 19.9825 5.76346 25.7465 12.873 25.7465C14.7591 25.7465 16.6302 25.3797 19.3763 25.3797ZM20.3346 20.7059C20.9071 21.1901 21.0814 21.7658 20.7785 22.1718C20.6099 22.3944 20.3369 22.5173 20.0098 22.5173C19.6884 22.5173 19.361 22.3983 19.1337 22.1999C18.613 21.745 18.46 21.007 18.8001 20.5879C18.9329 20.424 19.1487 20.3337 19.4073 20.3337C19.7219 20.3337 20.0511 20.4661 20.3346 20.7059ZM22.977 19.476C23.0611 20.0402 22.8829 20.2738 22.7039 20.2738C22.5086 20.2738 22.2635 20.0451 21.9741 19.594C21.6887 19.1485 21.5844 18.6375 21.7257 18.3793C21.8193 18.2083 22.0149 18.1341 22.2616 18.2274C22.7393 18.4079 22.9268 19.1391 22.977 19.476Z" fill="#E9832C"/>
</svg>
