<svg width="13" height="13" viewBox="0 0 13 13" fill="none" xmlns="http://www.w3.org/2000/svg">
<path fill-rule="evenodd" clip-rule="evenodd" d="M7.04166 3.25V1.08334C7.04166 0.758338 6.82499 0.541672 6.49999 0.541672C6.17499 0.541672 5.95832 0.758338 5.95832 1.08334V3.25C5.95832 3.575 6.17499 3.79167 6.49999 3.79167C6.82499 3.79167 7.04166 3.575 7.04166 3.25ZM5.95832 9.75C5.95832 9.425 6.17499 9.20834 6.49999 9.20834C6.82499 9.20834 7.04166 9.425 7.04166 9.75V11.9167C7.04166 12.2417 6.82499 12.4583 6.49999 12.4583C6.17499 12.4583 5.95832 12.2417 5.95832 11.9167V9.75ZM3.03332 2.27501C2.81666 2.05834 2.49166 2.05834 2.27499 2.27501C2.05832 2.49167 2.05832 2.81667 2.27499 3.03334L3.79166 4.55C3.89999 4.65834 4.06249 4.7125 4.17082 4.7125C4.27916 4.7125 4.44166 4.65834 4.54999 4.55C4.76666 4.33334 4.76666 4.00834 4.54999 3.79167L3.03332 2.27501ZM8.39582 9.15417C8.17916 8.93751 8.17916 8.6125 8.39582 8.39584C8.61249 8.17917 8.93749 8.17917 9.15416 8.39584L10.6708 9.91251C10.8875 10.1292 10.8875 10.4542 10.6708 10.6708C10.5625 10.7792 10.4 10.8333 10.2917 10.8333C10.1833 10.8333 10.0208 10.7792 9.91249 10.6708L8.39582 9.15417ZM3.79166 6.50001C3.79166 6.17501 3.57499 5.95834 3.24999 5.95834H1.08332C0.758323 5.95834 0.541656 6.17501 0.541656 6.50001C0.541656 6.82501 0.758323 7.04167 1.08332 7.04167H3.24999C3.57499 7.04167 3.79166 6.82501 3.79166 6.50001ZM9.74999 5.95834H11.9167C12.2417 5.95834 12.4583 6.17501 12.4583 6.50001C12.4583 6.82501 12.2417 7.04167 11.9167 7.04167H9.74999C9.42499 7.04167 9.20832 6.82501 9.20832 6.50001C9.20832 6.17501 9.42499 5.95834 9.74999 5.95834ZM2.32916 9.91251C2.11249 10.1292 2.11249 10.4542 2.32916 10.6708C2.43749 10.7792 2.59999 10.8333 2.70832 10.8333C2.81666 10.8333 2.97916 10.7792 3.08749 10.6708L4.60416 9.15417C4.82082 8.93751 4.82082 8.6125 4.60416 8.39584C4.38749 8.17917 4.00832 8.17917 3.84582 8.39584L2.32916 9.91251ZM9.15416 4.60417C9.04583 4.71251 8.93749 4.76667 8.77499 4.76667C8.66666 4.76667 8.50416 4.71251 8.39582 4.60417C8.17916 4.38751 8.17916 4.06251 8.39582 3.84584L9.91249 2.32917C10.1292 2.11251 10.4542 2.11251 10.6708 2.32917C10.8875 2.54584 10.8875 2.87084 10.6708 3.08751L9.15416 4.60417Z" fill="black"/>
<mask id="mask0" mask-type="alpha" maskUnits="userSpaceOnUse" x="0" y="0" width="13" height="13">
<path fill-rule="evenodd" clip-rule="evenodd" d="M7.04166 3.25V1.08334C7.04166 0.758338 6.82499 0.541672 6.49999 0.541672C6.17499 0.541672 5.95832 0.758338 5.95832 1.08334V3.25C5.95832 3.575 6.17499 3.79167 6.49999 3.79167C6.82499 3.79167 7.04166 3.575 7.04166 3.25ZM5.95832 9.75C5.95832 9.425 6.17499 9.20834 6.49999 9.20834C6.82499 9.20834 7.04166 9.425 7.04166 9.75V11.9167C7.04166 12.2417 6.82499 12.4583 6.49999 12.4583C6.17499 12.4583 5.95832 12.2417 5.95832 11.9167V9.75ZM3.03332 2.27501C2.81666 2.05834 2.49166 2.05834 2.27499 2.27501C2.05832 2.49167 2.05832 2.81667 2.27499 3.03334L3.79166 4.55C3.89999 4.65834 4.06249 4.7125 4.17082 4.7125C4.27916 4.7125 4.44166 4.65834 4.54999 4.55C4.76666 4.33334 4.76666 4.00834 4.54999 3.79167L3.03332 2.27501ZM8.39582 9.15417C8.17916 8.93751 8.17916 8.6125 8.39582 8.39584C8.61249 8.17917 8.93749 8.17917 9.15416 8.39584L10.6708 9.91251C10.8875 10.1292 10.8875 10.4542 10.6708 10.6708C10.5625 10.7792 10.4 10.8333 10.2917 10.8333C10.1833 10.8333 10.0208 10.7792 9.91249 10.6708L8.39582 9.15417ZM3.79166 6.50001C3.79166 6.17501 3.57499 5.95834 3.24999 5.95834H1.08332C0.758323 5.95834 0.541656 6.17501 0.541656 6.50001C0.541656 6.82501 0.758323 7.04167 1.08332 7.04167H3.24999C3.57499 7.04167 3.79166 6.82501 3.79166 6.50001ZM9.74999 5.95834H11.9167C12.2417 5.95834 12.4583 6.17501 12.4583 6.50001C12.4583 6.82501 12.2417 7.04167 11.9167 7.04167H9.74999C9.42499 7.04167 9.20832 6.82501 9.20832 6.50001C9.20832 6.17501 9.42499 5.95834 9.74999 5.95834ZM2.32916 9.91251C2.11249 10.1292 2.11249 10.4542 2.32916 10.6708C2.43749 10.7792 2.59999 10.8333 2.70832 10.8333C2.81666 10.8333 2.97916 10.7792 3.08749 10.6708L4.60416 9.15417C4.82082 8.93751 4.82082 8.6125 4.60416 8.39584C4.38749 8.17917 4.00832 8.17917 3.84582 8.39584L2.32916 9.91251ZM9.15416 4.60417C9.04583 4.71251 8.93749 4.76667 8.77499 4.76667C8.66666 4.76667 8.50416 4.71251 8.39582 4.60417C8.17916 4.38751 8.17916 4.06251 8.39582 3.84584L9.91249 2.32917C10.1292 2.11251 10.4542 2.11251 10.6708 2.32917C10.8875 2.54584 10.8875 2.87084 10.6708 3.08751L9.15416 4.60417Z" fill="white"/>
</mask>
<g mask="url(#mask0)">
<rect width="13" height="13" fill="white"/>
<rect width="13" height="13" fill="white"/>
</g>
</svg>
