<svg width="25" height="30" viewBox="0 0 25 30" fill="none" xmlns="http://www.w3.org/2000/svg">
<path fill-rule="evenodd" clip-rule="evenodd" d="M6.3047 0.19043H15.4272C20.2856 0.19043 24.4285 3.87996 24.4286 8.67277C24.4286 13.35 20.3906 17.1552 15.4272 17.1552H8.00806V20.8222H15.4272C16.3679 20.8222 17.1306 21.5408 17.1306 22.4273C17.1306 23.3138 16.3679 24.0325 15.4272 24.0325H8.00806V27.5853C8.00806 28.4717 7.24541 29.1904 6.3047 29.1904C5.36399 29.1904 4.60133 28.4717 4.60133 27.5853V24.0325H2.65575C1.71504 24.0325 0.952393 23.3138 0.952393 22.4273C0.952393 21.5408 1.71504 20.8222 2.65575 20.8222H4.60133V17.1552H2.65575C1.71504 17.1552 0.952393 16.4365 0.952393 15.55C0.952393 14.6636 1.71504 13.9449 2.65575 13.9449H4.60133V1.7956C4.60133 0.909116 5.36399 0.19043 6.3047 0.19043ZM8.2887 14H15.3988C18.3552 14 20.7603 11.6769 20.7604 8.82143C20.7604 5.93218 18.3374 3.64281 15.3988 3.64281H8.2887V14Z" fill="#01CFE8"/>
</svg>
