<svg width="63" height="63" viewBox="0 0 63 63" fill="none" xmlns="http://www.w3.org/2000/svg">
<mask id="mask0" mask-type="alpha" maskUnits="userSpaceOnUse" x="0" y="0" width="63" height="63">
<path fill-rule="evenodd" clip-rule="evenodd" d="M0 0H63V63H0V0Z" fill="white"/>
</mask>
<g mask="url(#mask0)">
<path fill-rule="evenodd" clip-rule="evenodd" d="M31.5 63.1579C14.0989 63.1579 0 49.0237 0 31.5789C0 14.1342 14.0989 0 31.5 0C48.9011 0 63 14.1342 63 31.5789C63 49.0237 48.9011 63.1579 31.5 63.1579ZM20.6719 30.0789V33.6447H24.1474V38.7947H20.6719V42.1579H24.1474V49.3421H28.056V42.1579H35.931V38.7947H28.056V33.6447H32.9963C34.5056 33.6553 36.0019 33.45 37.4482 33.0289C38.8211 32.6263 40.0102 32 41.0156 31.1684C42.0315 30.3342 42.8295 29.2974 43.4149 28.0316C44.0003 26.7789 44.2969 25.2974 44.2969 23.6026C44.2969 21.9053 44.0212 20.4474 43.4674 19.2237C42.9135 18 42.1444 16.9816 41.1705 16.1895C40.1861 15.3895 39.0154 14.7921 37.6425 14.4026C36.1646 14 34.6264 13.7947 33.0986 13.8158H24.1474V30.0789H20.6719ZM33.0986 30.0789H28.056V17.3816H33.0986C35.3456 17.3816 37.1201 17.8763 38.4011 18.8632C39.6926 19.85 40.3384 21.4342 40.3384 23.6026C40.3384 25.7816 39.6926 27.3947 38.4011 28.4737C37.1201 29.5447 35.3456 30.0789 33.0986 30.0789Z" fill="#6DD400"/>
</g>
</svg>
