<svg width="11" height="12" viewBox="0 0 11 12" fill="none" xmlns="http://www.w3.org/2000/svg">
<path d="M3.27445 8.272V9.216H6.82645V10.128H3.27445V12H1.65845V10.128H0.0264478V9.216H1.65845V0.799999H6.05845C7.51978 0.799999 8.66112 1.12533 9.48245 1.776C10.3038 2.416 10.7144 3.33333 10.7144 4.528C10.7144 5.73333 10.3038 6.66133 9.48245 7.312C8.66112 7.952 7.51978 8.272 6.05845 8.272H3.27445ZM9.09845 4.544C9.09845 3.78667 8.83711 3.20533 8.31445 2.8C7.79178 2.39467 7.03978 2.192 6.05845 2.192H3.27445V6.944H6.05845C7.02911 6.944 7.77578 6.736 8.29845 6.32C8.83178 5.89333 9.09845 5.30133 9.09845 4.544Z" fill="#FF9F43"/>
</svg>
