<svg width="28" height="28" viewBox="0 0 28 28" fill="none" xmlns="http://www.w3.org/2000/svg">
<circle cx="14" cy="14" r="14" fill="#26A17B"/>
<path fill-rule="evenodd" clip-rule="evenodd" d="M15.6817 9.99861V12.0689C19.5256 12.2465 22.414 13.0086 22.414 13.9212C22.414 14.8339 19.5256 15.596 15.6817 15.7727V22.4087H12.2578V15.7745C8.40783 15.5969 5.51245 14.8347 5.51245 13.9212C5.51245 13.0077 8.40783 12.2447 12.2578 12.068V9.99861H7.52058V6.84161H20.419V9.99861H15.6817ZM15.6817 15.2084V15.2101C19.0767 15.0596 21.6098 14.469 21.6098 13.7602C21.6098 13.0532 19.0767 12.4609 15.6817 12.3095V14.6221C15.5828 14.6309 15.0535 14.6746 13.9973 14.6746C13.1171 14.6746 12.4801 14.637 12.2578 14.6212V12.3077C8.85583 12.46 6.31658 13.0524 6.31658 13.7602C6.31658 14.469 8.85583 15.0614 12.2578 15.211V15.2084C12.4766 15.2189 13.0987 15.2451 13.9825 15.2451C15.0893 15.2451 15.5855 15.2154 15.6817 15.2084Z" fill="white"/>
</svg>
