<svg width="20" height="30" viewBox="0 0 20 30" fill="none" xmlns="http://www.w3.org/2000/svg">
<path d="M10.0274 13.3613C7.09043 13.3613 4.60867 11.8855 4.60867 10.1391C4.60867 8.39263 7.09043 6.91686 10.0274 6.91686C11.6891 6.91686 13.228 7.38086 14.2467 8.18641C14.9909 8.77608 16.1288 8.7213 16.7971 8.05108C17.4618 7.3873 17.3932 6.36908 16.6454 5.77619C15.381 4.77408 13.6832 4.09741 11.8336 3.82997V2.08352C11.8336 1.19419 11.0244 0.472412 10.0274 0.472412C9.03032 0.472412 8.22113 1.19419 8.22113 2.08352V3.82352C4.10293 4.42286 0.996216 7.02641 0.996216 10.1391C0.996216 13.6932 5.04939 16.5835 10.0274 16.5835C12.9643 16.5835 15.446 18.0593 15.446 19.8057C15.446 21.5522 12.9643 23.028 10.0274 23.028C8.36563 23.028 6.82672 22.564 5.80801 21.7584C5.06384 21.1655 3.92231 21.2235 3.25761 21.8937C2.59292 22.5575 2.66156 23.5757 3.40934 24.1686C4.6737 25.174 6.37155 25.8474 8.22113 26.1181V27.8613C8.22113 28.7506 9.03032 29.4724 10.0274 29.4724C11.0244 29.4724 11.8336 28.7506 11.8336 27.8613V26.1213C15.9518 25.522 19.0585 22.9184 19.0585 19.8057C19.0585 16.2516 15.0053 13.3613 10.0274 13.3613Z" fill="#01CFE8"/>
</svg>
