<svg width="63" height="63" viewBox="0 0 63 63" fill="none" xmlns="http://www.w3.org/2000/svg">
<mask id="mask0" mask-type="alpha" maskUnits="userSpaceOnUse" x="0" y="0" width="63" height="63">
<path fill-rule="evenodd" clip-rule="evenodd" d="M0 0H63V63H0V0Z" fill="white"/>
</mask>
<g mask="url(#mask0)">
<path fill-rule="evenodd" clip-rule="evenodd" d="M31.5 63.1579C14.0989 63.1579 0 49.0237 0 31.5789C0 14.1342 14.0989 0 31.5 0C48.9011 0 63 14.1342 63 31.5789C63 49.0237 48.9011 63.1579 31.5 63.1579ZM44.2969 37.8079C44.2969 32.8237 41.1889 30.0158 33.9412 28.2579V19.5C36.1751 19.9632 38.3303 20.9289 40.4303 22.45L43.1077 18.1132C40.4722 16.1789 37.3747 14.9684 34.125 14.6079V11.8421H29.9722V14.5158C24.0056 14.9763 19.9447 18.3895 19.9447 23.3658C19.9447 28.5763 23.1945 31.1158 30.1665 32.8737V41.9105C27.0611 41.4474 24.486 40.0605 21.7586 37.9421L18.7031 42.1368C21.9739 44.6658 25.8694 46.2368 29.9722 46.7V51.3158H34.125V46.7526C40.1861 46.2474 44.2969 42.8763 44.2969 37.8079ZM30.156 27.2921C26.4863 26.2342 25.5833 24.9895 25.5833 23.0474C25.5833 21.0211 27.153 19.4079 30.1665 19.1711L30.156 27.2921ZM38.6584 38.1263C38.6584 40.3368 36.9442 41.8579 33.9412 42.0947V33.7474C37.6635 34.8079 38.6584 36.05 38.6584 38.1263Z" fill="#6DD400"/>
</g>
</svg>
