<svg width="63" height="63" viewBox="0 0 63 63" fill="none" xmlns="http://www.w3.org/2000/svg">
<path fill-rule="evenodd" clip-rule="evenodd" d="M31.5 63C14.0989 63 0 48.9011 0 31.5C0 14.0989 14.0989 0 31.5 0C48.9011 0 63 14.0989 63 31.5C63 48.9011 48.9011 63 31.5 63ZM35.2826 27.153V22.4963H45.948V15.3904H16.9181V22.4963H27.5835V27.153C18.9184 27.552 12.4084 29.2635 12.4084 31.3267C12.4084 33.3769 18.9184 35.0884 27.5835 35.49V50.4184H35.2826V35.49C43.9268 35.0884 50.4289 33.3769 50.4289 31.3267C50.4289 29.2635 43.9268 27.552 35.2826 27.153ZM35.2826 34.2274V34.2169C35.0674 34.2379 33.9518 34.2982 31.458 34.2982C29.4709 34.2982 28.0744 34.2379 27.5835 34.2169V34.2274C19.9237 33.8888 14.2118 32.5552 14.2118 30.9566C14.2118 29.3685 19.9237 28.035 27.5835 27.6964V32.8939C28.0744 32.9359 29.5103 33.0173 31.4895 33.0173C33.8677 33.0173 35.0569 32.9149 35.2826 32.9044V27.6964C42.924 28.035 48.6229 29.3685 48.6229 30.9566C48.6229 32.5552 42.924 33.8888 35.2826 34.2274Z" fill="#01CFE8"/>
</svg>
