<svg width="32" height="11" viewBox="0 0 32 11" fill="none" xmlns="http://www.w3.org/2000/svg">
<path fill-rule="evenodd" clip-rule="evenodd" d="M6.9963 6.85183L9.49311 0V0.00110676H12.1895L8.18269 10.0749H5.48629L3.19995 1.40569C4.81524 2.24727 6.26264 3.9415 6.7243 5.50059L6.9963 6.85183ZM13.2169 0L11.6226 10.085H14.171L15.7644 0H13.2169ZM20.9039 4.10807C20.0134 3.66105 19.4674 3.35935 19.4674 2.90214C19.4783 2.48644 19.9291 2.06056 20.9357 2.06056C21.7637 2.03942 22.3722 2.2372 22.8339 2.43398L23.0652 2.53891L23.4116 0.428869C22.9083 0.231091 22.1101 0.0131704 21.1243 0.0131704C18.6077 0.0131704 16.8356 1.34316 16.8246 3.24535C16.8038 4.64905 18.0933 5.42799 19.0583 5.89526C20.0442 6.3746 20.3798 6.68538 20.3798 7.11126C20.3689 7.76513 19.5826 8.06683 18.849 8.06683C17.8324 8.06683 17.2864 7.91145 16.4574 7.5471L16.1219 7.39171L15.7655 9.58453C16.3641 9.85503 17.465 10.0931 18.6078 10.1053C21.2823 10.1053 23.0226 8.79541 23.0445 6.76816C23.0532 5.65609 22.3732 4.80433 20.9039 4.10807ZM27.9733 0.0312106H29.945L32 10.0931H29.6411L29.2589 8.08399H26.2667L25.5301 10.085H22.8556L26.641 0.842576C26.9041 0.208845 27.3657 0.0312106 27.9733 0.0312106ZM27.0086 6.0646C27.063 6.05952 28.0349 2.79811 28.0349 2.79811L28.8113 6.0646H27.0086Z" fill="#2394BC"/>
<path d="M5.55428 1.26102C5.36309 0.514336 4.75338 0.0107467 3.92531 0H0.0400127L0 0.181189C3.0308 0.931737 5.57471 3.2412 6.4 5.41353L5.55428 1.26102Z" fill="#EFC75E"/>
</svg>
