<svg width="66" height="65" viewBox="0 0 66 65" fill="none" xmlns="http://www.w3.org/2000/svg">
<path fill-rule="evenodd" clip-rule="evenodd" d="M33.3923 62.2917C49.9131 62.2917 63.1839 49.0209 63.1839 32.5C63.1839 15.9792 49.9131 2.70837 33.3923 2.70837C16.8714 2.70837 3.60059 15.9792 3.60059 32.5C3.60059 49.0209 16.8714 62.2917 33.3923 62.2917ZM33.9338 37.6459C35.0172 37.375 43.9547 34.125 43.9547 27.0834C43.9547 22.4792 40.9755 18.4167 36.6422 17.0625C30.9547 14.8959 24.7255 17.875 22.8297 23.5625C22.5588 24.9167 23.1005 26.5417 24.4547 26.5417C25.8088 27.0834 27.4338 26.2709 27.9755 24.9167C29.0588 22.2084 32.3088 20.5834 35.0172 21.6667C37.1838 22.4792 38.538 24.375 38.538 26.8125C38.538 29.7917 33.9338 31.9584 32.3088 32.5C30.9547 33.0417 30.1422 34.6667 30.6838 36.0209C30.9547 37.1042 32.038 37.9167 33.1213 37.9167C33.3922 37.9167 33.663 37.9167 33.9338 37.6459ZM57.7673 32.5C57.7673 18.9584 46.9339 8.12504 33.3923 8.12504C19.8506 8.12504 9.01725 18.9584 9.01725 32.5C9.01725 46.0417 19.8506 56.875 33.3923 56.875C46.9339 56.875 57.7673 46.0417 57.7673 32.5ZM34.7465 43.875C35.0173 43.875 35.2881 44.1459 35.2881 44.1459C35.559 44.4167 35.8298 44.6875 35.559 44.9584C35.8298 45.2292 35.8298 45.7709 35.8298 46.0417C35.8298 46.8542 35.559 47.3959 35.0173 47.9375C34.4756 48.4792 33.934 48.75 33.1215 48.75C32.309 48.75 31.7673 48.4792 31.2256 47.9375C30.684 47.3959 30.4131 46.8542 30.4131 46.0417C30.4131 45.7244 30.5061 45.5 30.5831 45.3142C30.6375 45.1827 30.684 45.0706 30.684 44.9584C30.684 44.6875 30.9548 44.4167 31.2256 44.1459C31.4965 43.875 31.7673 43.6042 32.0381 43.6042C32.5798 43.3334 33.1215 43.3334 33.6631 43.3334C33.8189 43.4891 33.8851 43.5553 33.9647 43.5834C34.0235 43.6042 34.0897 43.6042 34.2048 43.6042C34.3402 43.6042 34.4079 43.6719 34.4756 43.7396C34.5433 43.8073 34.611 43.875 34.7465 43.875Z" fill="black"/>
<mask id="mask0" mask-type="alpha" maskUnits="userSpaceOnUse" x="3" y="2" width="61" height="61">
<path fill-rule="evenodd" clip-rule="evenodd" d="M33.3923 62.2917C49.9131 62.2917 63.1839 49.0209 63.1839 32.5C63.1839 15.9792 49.9131 2.70837 33.3923 2.70837C16.8714 2.70837 3.60059 15.9792 3.60059 32.5C3.60059 49.0209 16.8714 62.2917 33.3923 62.2917ZM33.9338 37.6459C35.0172 37.375 43.9547 34.125 43.9547 27.0834C43.9547 22.4792 40.9755 18.4167 36.6422 17.0625C30.9547 14.8959 24.7255 17.875 22.8297 23.5625C22.5588 24.9167 23.1005 26.5417 24.4547 26.5417C25.8088 27.0834 27.4338 26.2709 27.9755 24.9167C29.0588 22.2084 32.3088 20.5834 35.0172 21.6667C37.1838 22.4792 38.538 24.375 38.538 26.8125C38.538 29.7917 33.9338 31.9584 32.3088 32.5C30.9547 33.0417 30.1422 34.6667 30.6838 36.0209C30.9547 37.1042 32.038 37.9167 33.1213 37.9167C33.3922 37.9167 33.663 37.9167 33.9338 37.6459ZM57.7673 32.5C57.7673 18.9584 46.9339 8.12504 33.3923 8.12504C19.8506 8.12504 9.01725 18.9584 9.01725 32.5C9.01725 46.0417 19.8506 56.875 33.3923 56.875C46.9339 56.875 57.7673 46.0417 57.7673 32.5ZM34.7465 43.875C35.0173 43.875 35.2881 44.1459 35.2881 44.1459C35.559 44.4167 35.8298 44.6875 35.559 44.9584C35.8298 45.2292 35.8298 45.7709 35.8298 46.0417C35.8298 46.8542 35.559 47.3959 35.0173 47.9375C34.4756 48.4792 33.934 48.75 33.1215 48.75C32.309 48.75 31.7673 48.4792 31.2256 47.9375C30.684 47.3959 30.4131 46.8542 30.4131 46.0417C30.4131 45.7244 30.5061 45.5 30.5831 45.3142C30.6375 45.1827 30.684 45.0706 30.684 44.9584C30.684 44.6875 30.9548 44.4167 31.2256 44.1459C31.4965 43.875 31.7673 43.6042 32.0381 43.6042C32.5798 43.3334 33.1215 43.3334 33.6631 43.3334C33.8189 43.4891 33.8851 43.5553 33.9647 43.5834C34.0235 43.6042 34.0897 43.6042 34.2048 43.6042C34.3402 43.6042 34.4079 43.6719 34.4756 43.7396C34.5433 43.8073 34.611 43.875 34.7465 43.875Z" fill="white"/>
</mask>
<g mask="url(#mask0)">
<rect width="65" height="65" transform="translate(0.892334)" fill="white"/>
<rect x="0.892334" width="65" height="65" fill="#EA5455"/>
</g>
</svg>
