<svg width="63" height="63" viewBox="0 0 63 63" fill="none" xmlns="http://www.w3.org/2000/svg">
<mask id="mask0" mask-type="alpha" maskUnits="userSpaceOnUse" x="0" y="0" width="63" height="63">
<path fill-rule="evenodd" clip-rule="evenodd" d="M0 0H63V63H0V0Z" fill="white"/>
</mask>
<g mask="url(#mask0)">
<path fill-rule="evenodd" clip-rule="evenodd" d="M31.5 63.1579C14.0989 63.1579 0 49.0237 0 31.5789C0 14.1342 14.0989 0 31.5 0C48.9011 0 63 14.1342 63 31.5789C63 49.0237 48.9011 63.1579 31.5 63.1579ZM31.4396 10.3316C25.788 10.3316 20.3648 12.5816 16.3748 16.5816C12.3769 20.5895 10.1299 26.0289 10.1299 31.6921C10.1299 34.0658 10.542 36.3289 11.2271 38.4658H17.5849V20.5184L31.4475 34.4158L45.3022 20.5184V38.4658H51.66C52.3766 36.2868 52.7468 33.9947 52.7573 31.6921C52.7573 19.8816 43.2311 10.3316 31.4475 10.3316H31.4396ZM28.2712 37.5421L22.1996 31.4553V42.7526H13.2484C17.0021 48.8895 23.7589 53.0026 31.4396 53.0026C39.1177 53.0026 45.9375 48.8895 49.6387 42.7526H40.677V31.4553L34.6789 37.5421L31.5 40.7289L28.2712 37.5421Z" fill="#01CFE8"/>
</g>
</svg>
