<svg width="42" height="42" viewBox="0 0 42 42" fill="none" xmlns="http://www.w3.org/2000/svg">
<rect width="42" height="42" rx="21" fill="#7367F0"/>
<path fill-rule="evenodd" clip-rule="evenodd" d="M15 13.5H27C28.275 13.5 29.25 14.475 29.25 15.75V23.25C29.25 24.525 28.275 25.5 27 25.5H21.75V27H24C24.45 27 24.75 27.3 24.75 27.75C24.75 28.2 24.45 28.5 24 28.5H18C17.55 28.5 17.25 28.2 17.25 27.75C17.25 27.3 17.55 27 18 27H20.25V25.5H15C13.725 25.5 12.75 24.525 12.75 23.25V15.75C12.75 14.475 13.725 13.5 15 13.5ZM27 24C27.45 24 27.75 23.7 27.75 23.25V15.75C27.75 15.3 27.45 15 27 15H15C14.55 15 14.25 15.3 14.25 15.75V23.25C14.25 23.7 14.55 24 15 24H27Z" fill="black"/>
<mask id="mask0" mask-type="alpha" maskUnits="userSpaceOnUse" x="12" y="13" width="18" height="16">
<path fill-rule="evenodd" clip-rule="evenodd" d="M15 13.5H27C28.275 13.5 29.25 14.475 29.25 15.75V23.25C29.25 24.525 28.275 25.5 27 25.5H21.75V27H24C24.45 27 24.75 27.3 24.75 27.75C24.75 28.2 24.45 28.5 24 28.5H18C17.55 28.5 17.25 28.2 17.25 27.75C17.25 27.3 17.55 27 18 27H20.25V25.5H15C13.725 25.5 12.75 24.525 12.75 23.25V15.75C12.75 14.475 13.725 13.5 15 13.5ZM27 24C27.45 24 27.75 23.7 27.75 23.25V15.75C27.75 15.3 27.45 15 27 15H15C14.55 15 14.25 15.3 14.25 15.75V23.25C14.25 23.7 14.55 24 15 24H27Z" fill="white"/>
</mask>
<g mask="url(#mask0)">
<rect x="12" y="12" width="18" height="18" fill="white"/>
</g>
</svg>
