<svg width="42" height="42" viewBox="0 0 42 42" fill="none" xmlns="http://www.w3.org/2000/svg">
<rect width="42" height="42" rx="21" fill="#7367F0"/>
<path fill-rule="evenodd" clip-rule="evenodd" d="M22.875 20.25H21.75V16.5H24.75C25.2 16.5 25.5 16.2 25.5 15.75C25.5 15.3 25.2 15 24.75 15H21.75V12.75C21.75 12.3 21.45 12 21 12C20.55 12 20.25 12.3 20.25 12.75V15H19.125C17.25 15 15.75 16.5 15.75 18.375C15.75 20.25 17.25 21.75 19.125 21.75H20.25V25.5H16.5C16.05 25.5 15.75 25.8 15.75 26.25C15.75 26.7 16.05 27 16.5 27H20.25V29.25C20.25 29.7 20.55 30 21 30C21.45 30 21.75 29.7 21.75 29.25V27H22.875C24.75 27 26.25 25.5 26.25 23.625C26.25 21.75 24.75 20.25 22.875 20.25ZM19.125 20.25C18.075 20.25 17.25 19.425 17.25 18.375C17.25 17.325 18.075 16.5 19.125 16.5H20.25V20.25H19.125ZM21.75 25.5H22.875C23.925 25.5 24.75 24.675 24.75 23.625C24.75 22.575 23.925 21.75 22.875 21.75H21.75V25.5Z" fill="black"/>
<mask id="mask0" mask-type="alpha" maskUnits="userSpaceOnUse" x="15" y="12" width="12" height="18">
<path fill-rule="evenodd" clip-rule="evenodd" d="M22.875 20.25H21.75V16.5H24.75C25.2 16.5 25.5 16.2 25.5 15.75C25.5 15.3 25.2 15 24.75 15H21.75V12.75C21.75 12.3 21.45 12 21 12C20.55 12 20.25 12.3 20.25 12.75V15H19.125C17.25 15 15.75 16.5 15.75 18.375C15.75 20.25 17.25 21.75 19.125 21.75H20.25V25.5H16.5C16.05 25.5 15.75 25.8 15.75 26.25C15.75 26.7 16.05 27 16.5 27H20.25V29.25C20.25 29.7 20.55 30 21 30C21.45 30 21.75 29.7 21.75 29.25V27H22.875C24.75 27 26.25 25.5 26.25 23.625C26.25 21.75 24.75 20.25 22.875 20.25ZM19.125 20.25C18.075 20.25 17.25 19.425 17.25 18.375C17.25 17.325 18.075 16.5 19.125 16.5H20.25V20.25H19.125ZM21.75 25.5H22.875C23.925 25.5 24.75 24.675 24.75 23.625C24.75 22.575 23.925 21.75 22.875 21.75H21.75V25.5Z" fill="white"/>
</mask>
<g mask="url(#mask0)">
<rect x="12" y="12" width="18" height="18" fill="white"/>
</g>
</svg>
